<?xml version="1.0" encoding="UTF-8" standalone="no"?>
<svg id="svg2" xmlns:rdf="http://www.w3.org/1999/02/22-rdf-syntax-ns#" xmlns="http://www.w3.org/2000/svg" height="117.6mm" width="266.6mm" version="1.1" xmlns:cc="http://creativecommons.org/ns#" xmlns:dc="http://purl.org/dc/elements/1.1/" viewBox="0 0 944.55427 416.78893">

	<script type="text/ecmascript"><![CDATA[
		var pids = {"1":{"url":"https://en.wikipedia.org/wiki/Adana_Province","name":"Adana"},
					"2":{"url":"https://en.wikipedia.org/wiki/Ad%C4%B1yaman_Province","name":"Adıyaman"},
					"3":{"url":"https://en.wikipedia.org/wiki/Afyonkarahisar_Province","name":"Afyonkarahisar"},
					"4":{"url":"https://en.wikipedia.org/wiki/A%C4%9Fr%C4%B1_Province","name":"Ağrı"},
					"5":{"url":"https://en.wikipedia.org/wiki/Amasya_Province","name":"Amasya"},
					"6":{"url":"https://en.wikipedia.org/wiki/Ankara_Province","name":"Ankara"},
					"7":{"url":"https://en.wikipedia.org/wiki/Antalya_Province","name":"Antalya"},
					"8":{"url":"https://en.wikipedia.org/wiki/Artvin_Province","name":"Artvin"},
					"9":{"url":"https://en.wikipedia.org/wiki/Ayd%C4%B1n_Province","name":"Aydın"},
					"10":{"url":"https://en.wikipedia.org/wiki/Bal%C4%B1kesir_Province","name":"Balıkesir"},
					"11":{"url":"https://en.wikipedia.org/wiki/Bilecik_Province","name":"Bilecik"},
					"12":{"url":"https://en.wikipedia.org/wiki/Bing%C3%B6l_Province","name":"Bingöl"},
					"13":{"url":"https://en.wikipedia.org/wiki/Bitlis_Province","name":"Bitlis"},
					"14":{"url":"https://en.wikipedia.org/wiki/Bolu_Province","name":"Bolu"},
					"15":{"url":"https://en.wikipedia.org/wiki/Burdur_Province","name":"Burdur"},
					"16":{"url":"https://en.wikipedia.org/wiki/Bursa_Province","name":"Bursa"},
					"17":{"url":"https://en.wikipedia.org/wiki/%C3%87anakkale_Province","name":"Çanakkale"},
					"18":{"url":"https://en.wikipedia.org/wiki/%C3%87ank%C4%B1r%C4%B1_Province","name":"Çankırı"},
					"19":{"url":"https://en.wikipedia.org/wiki/%C3%87orum_Province","name":"Çorum"},
					"20":{"url":"https://en.wikipedia.org/wiki/Denizli_Province","name":"Denizli"},
					"21":{"url":"https://en.wikipedia.org/wiki/Diyarbak%C4%B1r_Province","name":"Diyarbakır"},
					"22":{"url":"https://en.wikipedia.org/wiki/Edirne_Province","name":"Edirne"},
					"23":{"url":"https://en.wikipedia.org/wiki/Elaz%C4%B1%C4%9F_Province","name":"Elazığ"},
					"24":{"url":"https://en.wikipedia.org/wiki/Erzincan_Province","name":"Erzincan"},
					"25":{"url":"https://en.wikipedia.org/wiki/Erzurum_Province","name":"Erzurum"},
					"26":{"url":"https://en.wikipedia.org/wiki/Eski%C5%9Fehir_Province","name":"Eskişehir"},
					"27":{"url":"https://en.wikipedia.org/wiki/Gaziantep_Province","name":"Gaziantep"},
					"28":{"url":"https://en.wikipedia.org/wiki/Giresun_Province","name":"Giresun"},
					"29":{"url":"https://en.wikipedia.org/wiki/G%C3%BCm%C3%BC%C5%9Fhane_Province","name":"Gümüşhane"},
					"30":{"url":"https://en.wikipedia.org/wiki/Hakk%C3%A2ri_Province","name":"Hakkâri"},
					"31":{"url":"https://en.wikipedia.org/wiki/Hatay_Province","name":"Hatay"},
					"32":{"url":"https://en.wikipedia.org/wiki/Isparta_Province","name":"Isparta"},
					"33":{"url":"https://en.wikipedia.org/wiki/Mersin_Province","name":"Mersin"},
					"34":{"url":"https://en.wikipedia.org/wiki/Istanbul_Province","name":"Istanbul"},
					"35":{"url":"https://en.wikipedia.org/wiki/%C4%B0zmir_Province","name":"İzmir"},
					"36":{"url":"https://en.wikipedia.org/wiki/Kars_Province","name":"Kars"},
					"37":{"url":"https://en.wikipedia.org/wiki/Kastamonu_Province","name":"Kastamonu"},
					"38":{"url":"https://en.wikipedia.org/wiki/Kayseri_Province","name":"Kayseri"},
					"39":{"url":"https://en.wikipedia.org/wiki/K%C4%B1rklareli_Province","name":"Kırklareli"},
					"40":{"url":"https://en.wikipedia.org/wiki/K%C4%B1r%C5%9Fehir_Province","name":"Kırşehir"},
					"41":{"url":"https://en.wikipedia.org/wiki/Kocaeli_Province","name":"Kocaeli"},
					"42":{"url":"https://en.wikipedia.org/wiki/Konya_Province","name":"Konya"},
					"43":{"url":"https://en.wikipedia.org/wiki/K%C3%BCtahya_Province","name":"Kütahya"},
					"44":{"url":"https://en.wikipedia.org/wiki/Malatya_Province","name":"Malatya"},
					"45":{"url":"https://en.wikipedia.org/wiki/Manisa_Province","name":"Manisa"},
					"46":{"url":"https://en.wikipedia.org/wiki/Kahramanmara%C5%9F_Province","name":"Kahramanmaraş"},
					"47":{"url":"https://en.wikipedia.org/wiki/Mardin_Province","name":"Mardin"},
					"48":{"url":"https://en.wikipedia.org/wiki/Mu%C4%9Fla_Province","name":"Muğla"},
					"49":{"url":"https://en.wikipedia.org/wiki/Mu%C5%9F_Province","name":"Muş"},
					"50":{"url":"https://en.wikipedia.org/wiki/Nev%C5%9Fehir_Province","name":"Nevşehir"},
					"51":{"url":"https://en.wikipedia.org/wiki/Ni%C4%9Fde_Province","name":"Niğde"},
					"52":{"url":"https://en.wikipedia.org/wiki/Ordu_Province","name":"Ordu"},
					"53":{"url":"https://en.wikipedia.org/wiki/Rize_Province","name":"Rize"},
					"54":{"url":"https://en.wikipedia.org/wiki/Sakarya_Province","name":"Sakarya"},
					"55":{"url":"https://en.wikipedia.org/wiki/Samsun_Province","name":"Samsun"},
					"56":{"url":"https://en.wikipedia.org/wiki/Siirt_Province","name":"Siirt"},
					"57":{"url":"https://en.wikipedia.org/wiki/Sinop_Province","name":"Sinop"},
					"58":{"url":"https://en.wikipedia.org/wiki/Sivas_Province","name":"Sivas"},
					"59":{"url":"https://en.wikipedia.org/wiki/Tekirdağ_Province","name":"Tekirdağ"},
					"60":{"url":"https://en.wikipedia.org/wiki/Tokat_Province","name":"Tokat"},
					"61":{"url":"https://en.wikipedia.org/wiki/Trabzon_Province","name":"Trabzon"},
					"62":{"url":"https://en.wikipedia.org/wiki/Tunceli_Province","name":"Tunceli"},
					"63":{"url":"https://en.wikipedia.org/wiki/%C5%9Eanl%C4%B1urfa_Province","name":"Şanlıurfa"},
					"64":{"url":"https://en.wikipedia.org/wiki/U%C5%9Fak_Province","name":"Uşak"},
					"65":{"url":"https://en.wikipedia.org/wiki/Van_Province","name":"Van"},
					"66":{"url":"https://en.wikipedia.org/wiki/Yozgat_Province","name":"Yozgat"},
					"67":{"url":"https://en.wikipedia.org/wiki/Zonguldak_Province","name":"Zonguldak"},
					"68":{"url":"https://en.wikipedia.org/wiki/Aksaray_Province","name":"Aksaray"},
					"69":{"url":"https://en.wikipedia.org/wiki/Bayburt_Province","name":"Bayburt"},
					"70":{"url":"https://en.wikipedia.org/wiki/Karaman_Province","name":"Karaman"},
					"71":{"url":"https://en.wikipedia.org/wiki/K%C4%B1r%C4%B1kkale_Province","name":"Kırıkkale"},
					"72":{"url":"https://en.wikipedia.org/wiki/Batman_Province","name":"Batman"},
					"73":{"url":"https://en.wikipedia.org/wiki/%C5%9E%C4%B1rnak_Province","name":"Şırnak"},
					"74":{"url":"https://en.wikipedia.org/wiki/Bart%C4%B1n_Province","name":"Bartın"},
					"75":{"url":"https://en.wikipedia.org/wiki/Ardahan_Province","name":"Ardahan"},
					"76":{"url":"https://en.wikipedia.org/wiki/I%C4%9Fd%C4%B1r_Province","name":"Iğdır"},
					"77":{"url":"https://en.wikipedia.org/wiki/Yalova_Province","name":"Yalova"},
					"78":{"url":"https://en.wikipedia.org/wiki/Karab%C3%BCk_Province","name":"Karabük"},
					"79":{"url":"https://en.wikipedia.org/wiki/Kilis_Province","name":"Kilis"},
					"80":{"url":"https://en.wikipedia.org/wiki/Osmaniye_Province","name":"Osmaniye"},
					"81":{"url":"https://en.wikipedia.org/wiki/D%C3%BCzce_Province","name":"Düzce"}};

		function click(evt){
			var id = evt.target.id;
			window.open(pids[id]["url"]);
		}

		function hover(evt) {
			var name = pids[evt.target.id]["name"];
			var doc = evt.target.ownerDocument;
			doc.getElementById("province-name").textContent = name;
		}

		function clearText(evt) {
			evt.target.ownerDocument.getElementById("province-name").textContent = "";
		}

	]]></script>

	<style><![CDATA[
		path:not(#null):hover {
			cursor:pointer;
			fill: #cc3b30;
		}

		#province-name {
			pointer-events: none;
		}
  	]]></style>



	<g id="layer1" fill-rule="evenodd" transform="translate(360.8 -236.2)">
		<path onclick="click(evt)" onmouseout="clearText(evt)" onmouseover="hover(evt)" fill="#ddd" stroke="#fff" stroke-width="0.2" id="26" d="m-127.6 434.1-2.116-2.015-0.1008-1.713-4.433-2.116-1.31-1.411-1.008-3.728-1.814-2.72 2.116-2.519-0.403-6.75-2.116-2.317-1.108-0.2015-2.217-2.217-0.2015-0.9068-0.806-0.3022 0.1008-4.735-1.914-0.1008-0.1008-0.806-6.347 0.1008-0.403-2.015h-1.31l0.1008-3.526 3.426-3.829 9.37-0.2015 0.9068-1.411 1.108-0.9068 0.3023-1.511 2.821-1.713 2.418 0.1008 1.914-2.317 0.1008-4.433 1.108-0.9068h1.713l-0.1008-1.713 2.519-2.116 3.023-0.806 5.138-0.9068 5.038 2.317 1.008 1.108 0.403 4.232 2.317 1.008 3.426 1.411 6.448-2.519 4.131 1.31 2.62-1.31 3.627-0.1008 3.325 1.209h1.411l0.806 1.612 3.829 1.008h7.859l1.612 2.217 3.526 7.355 2.62 0.1008 1.209 1.31 1.612 0.1008-1.411 2.418-2.217 1.108-1.108 1.914 0.9068 2.217 3.123 2.72 2.418 8.161 2.62 4.332-0.1008 2.72-1.511 3.224-0.1008 3.829 2.72 2.519-0.1008 2.317-1.31 1.008h-3.123l-3.728 2.72-1.31 0.1008-4.332 5.441-4.232 0.1008-3.325-1.713-3.929-1.008-1.511-0.3023-0.1008-0.403-3.123-0.2015-2.217-1.31-3.023-2.62 0.1008-4.131-2.418-2.317-3.728-0.403-10.48 6.045-1.914-0.1008-0.3022-1.108-2.116 0.1008-1.209 1.814-1.31 1.814-6.247 0.403-1.612-1.914-3.123-0.2015-0.6045 1.008z"/>
		<path onclick="click(evt)" onmouseout="clearText(evt)" onmouseover="hover(evt)" fill="#ddd" stroke="#fff" stroke-width="0.2" id="6" d="m-110.9 373.1 0.1511-0.6045 6.952-2.569 2.922-0.3526 2.72-3.174 0.403-5.34 1.965-1.864 3.274 1.259 2.166 2.569 5.138-0.1511 0.3526-0.6549 3.375-0.3022 1.008 2.317 2.771 1.511 8.262-0.1511 2.871-1.763 8.614 0.1511 24.89-14.66-0.1008-2.166-2.972-2.418 1.411-1.562 1.814-0.7053h14.31l5.239 3.577 5.894 1.159 0.4534 0.7556-1.763 1.411-0.1008 3.023 1.209 1.36 3.325 0.9571 0.9068 1.713 2.116 5.39 1.763 0.5038 2.368 3.426 2.065 1.159 2.821-0.9571 1.562-3.728h5.844l5.844 1.814 4.886 2.116-5.692 9.37-0.0504 3.325 0.806 3.224 0.806 1.259v1.159l-4.08 2.166-1.36 1.411-5.088 0.0504-1.259 1.31-0.2519 4.03-1.814 1.763-0.3526 7.053-0.6549 0.8564-0.2519 1.763-2.67 3.677 0.3022 1.914 1.058 2.217 1.562 0.2519 1.159 1.814 1.864 1.008 1.763 1.864-0.0504 2.065-1.562 0.9068 0.806 4.332 0.7053 0.403 1.914 2.317 0.0504 4.03 1.965-0.2015 2.116 4.685 3.98 3.677 1.31 0.3526 6.247 6.347 3.123 0.0504 0.9068 1.108-6.448 4.483 0.1008 3.023 2.418 2.72 0.0504 3.123-1.914 4.181-1.713 1.763 0.0504 2.62-1.713 0.1511 0.1008-2.015-1.461 0.0504 0.1511-1.31 1.31-0.4534 0.0504-1.612-3.023-2.569-0.2015-1.31-1.31-1.31-1.31 0.1511v2.065l-1.108 1.511-4.282-3.879v-6.146l1.763 0.1511 0.0504-4.735-5.692-7.002-0.0504-1.562-2.871-0.1008v1.864l-1.058 0.806-1.511 0.4534-1.511-1.914-1.31-0.1008-5.289-5.541-1.511 0.0504-1.159-1.864-4.03 0.2015-0.5038 1.461-1.058 1.008-0.5541 0.1008-0.5038-1.31-2.972 0.4534-0.5038 3.274-3.325 2.821-0.403 1.108-0.9571 1.008-3.728-0.1008-0.0504 1.965-2.267 1.864h-2.317l-4.181 2.821-3.778 0.2015-6.7-3.98-5.844 0.0504-2.368 1.612-5.138 0.1511-0.2015-1.713-2.015-1.511 0.0504-1.108-1.562-1.31-0.0504-2.72-2.821-1.259 6.7-4.886 3.426-0.3526 2.217-3.224-0.2015-1.562-3.627-2.972-0.1511-2.317 1.008-1.108 0.1008-1.008 0.9571-0.1511-0.1511-5.592-2.62-3.728-2.62-8.161-3.325-2.871 0.1008-2.368 2.065-0.2519 2.065-4.534v-1.259l-2.116 0.403-1.864-1.763-2.166-0.1008-4.635-9.017-8.11-0.1511-3.577-1.058-1.411-1.864-3.375-0.3526-0.7556-0.5541-5.592 0.1511-1.159 0.8564-1.763 0.1008-0.8564-0.9571h-4.131l-3.274 1.159-0.7556 0.8564h-1.36l-1.008-1.159-2.166 0.0504-0.7556-2.065v-3.073z"/>
		<path onclick="click(evt)" onmouseout="clearText(evt)" onmouseover="hover(evt)" fill="#ddd" stroke="#fff" stroke-width="0.2" id="14" d="m-98.87 360.6-0.4786 5.289-2.418 2.242-2.569 0.4786-8.236 3.602-4.282-2.191-3.703 0.403-1.662-3.249-0.0756-4.408-1.889-1.36 1.814-1.436 0.0252-3.526-1.083-0.1763 0.2015-1.637 3.854-4.836 10.88-0.1763 1.133-1.108 0.1259-7.38 13.8 0.0252 0.0504 1.939 7.304 0.0756 0.5038-0.9571 2.393-0.0756 1.335-1.234-0.1259-7.053 2.922-3.728 5.97-0.2015 0.5289-0.7556 3.451-0.0252 4.584-4.106 0.2771-4.559 14.56-0.1763 0.2015-0.7556 9.319 0.1511 0.0756 2.897 0.9068 0.403 0.2015 3.829 2.04 3.375 1.36-0.0252 0.403 1.108 4.66-0.2015 3.854 3.073-0.0252 7.103-7.456-0.0252-2.242 0.7808-1.184 2.368 3.073 3.551-0.1511 0.6801-23.63 13.78-8.488 0.1259-3.123 1.914-7.657 0.1763-2.015-1.385-0.8564-2.418-5.088 0.3022-0.5541 0.6801-3.551 0.0252-1.889-2.594-4.408-1.587z"/>
		<path onclick="click(evt)" onmouseout="clearText(evt)" onmouseover="hover(evt)" fill="#ddd" stroke="#fff" stroke-width="0.2" id="11" d="m-152.2 400.3-0.5521-1.621-1.371-0.0713 0.0356-5.112 4.043-4.185 9.279-0.3028 0.4846-1.055 1.159-0.8564 0.3778-1.461 3.35-2.242 2.267 0.1008 1.411-1.662 0.0504-4.433 1.536-1.335 1.209-0.0504-0.0756-1.486 2.947-2.317 4.786-1.033-1.889-3.728-0.1763-3.778-2.217-1.839-4.886-1.965-0.2267-2.594-2.04-0.8816-6.599-0.1008-0.0756 0.9823-2.317-0.0252-5.214-4.685-4.307-0.0756-0.0756-1.99-0.7808 0.1008-0.2015-3.577-1.662 0.0252-2.091 0.9823-3.778 4.912-0.1008 9.773-1.99 1.536 0.0756 1.486-4.357 4.03 0.0252 1.385 0.806 0.3778v4.156l1.939 1.637-0.1008 5.969-1.133 0.2771 0.0504 2.745-0.9068 0.1008 0.0756 9.345 1.285 0.806 2.317 0.0756 2.166 1.914h2.443l0.4534 1.058 3.073 0.0252 0.403 0.7808z"/>
		<path onclick="click(evt)" onmouseout="clearText(evt)" onmouseover="hover(evt)" fill="#ddd" stroke="#fff" stroke-width="0.2" id="54" d="m-125.2 360.8-4.106-1.662-0.3526-2.292-2.771-1.411-7.632-0.1511-0.1008 0.6801-1.083-0.0504-5.289-4.483-3.803 0.1008v-2.015l-0.806 0.1008-0.0756-5.289-1.008-0.2015-0.0252-0.806 2.141-1.814 3.375-0.0756 0.2015-1.008 4.383 0.0252 2.569-3.073 2.091-3.879 0.1763-6.247 1.914-1.814 1.939-0.0504-0.0504-5.566-1.083-0.1008 0.0756-1.662-0.8312-0.2771-0.1008-5.466 1.234-1.738 1.738-0.9823 2.191-2.519 3.098-0.1511 2.242 1.688 3.35 0.2267 0.3526 0.7053 4.282 0.0504 0.403 0.8312 1.713 0.1259 1.033 1.738 2.594 0.1763 0.6045 0.8312 3.677-0.0504 1.033 0.9823 4.106 0.0504 0.6549 1.133 0.403 0.6801-0.0252 0.7556-1.058 0.932 0.1259 1.713-4.307 3.602-2.242 1.159-0.1511 2.594-0.8816 0.9571 0.0756 6.07 2.569 0.1511 0.4786 1.587 0.6549 0.3778v1.461l-1.788 1.411v1.108l-1.108 0.5289-0.0252 7.229-0.9068 0.9571-10.48 0.1008-4.357 5.415-0.4534 2.645 1.36 0.5541-0.1008 2.267z"/>
		<path onclick="click(evt)" onmouseout="clearText(evt)" onmouseover="hover(evt)" fill="#ddd" stroke="#fff" stroke-width="0.2" id="81" d="m-105.7 340.1v-1.033l1.567-1.354-0.1069-2.387-1.175-0.6412-0.4987-1.567-1.924-0.285-0.2137-4.809 1.14-1.069-0.0356-2.102 2.173-1.033 4.132-3.847-0.0356-1.924 0.8905-0.9261 0.1069-1.603-1.033-1.282 5.486-0.1781 0.1781-0.8905 7.979 0.0712 0.7836-0.8193 0.8549 0.7837 2.672 3.313 3.063 2.529 10.62-0.1425 0.8549 1.069 3.063-0.0712-0.2493 4.559-4.025 3.669-3.669 0.0712-0.6412 0.7837-5.913 0.2137-3.348 4.274 0.0356 6.804-1.175 0.748-2.315 0.1425-0.6768 1.069-5.094-0.1425v-2.066z"/>
		<path onclick="click(evt)" onmouseout="clearText(evt)" onmouseover="hover(evt)" fill="#ddd" stroke="#fff" stroke-width="0.2" id="67" d="m-84.9 311.9 2.85 3.883 2.885 2.208 10.47-0.2493 1.282 1.211 3.099-0.1425 0.4987 0.8549 13.32-0.3206 0.6412-1.069 3.455 0.3562v-0.7837l-1.211-0.6412 0.0712-3.954 1.959-1.282 0.3206-6.198 6.483-4.061-0.1781-0.6768-1.211-1.318 0.1069-3.384 1.14-0.6056-1.674-1.496-0.7837-1.888-0.4987-4.346-6.056-2.315-0.9974-0.6056-17.63 9.76-9.44 3.776-2.957 1.995-0.285 4.203-1.211 2.493-2.565 2.387-0.4274 1.71z"/>
		<path onclick="click(evt)" onmouseout="clearText(evt)" onmouseover="hover(evt)" fill="#ddd" stroke="#fff" stroke-width="0.2" id="78" d="m-44.97 318.5-0.2494-1.496-1.318-0.6412 0.0356-2.422 1.995-1.318 0.3206-6.341 6.376-3.811 13.11-4.916 2.102-2.28 2.422-3.598 7.089-4.025 3.99-0.7837 3.099 0.1069 1.14-1.033 2.137 1.318 0.4987 3.384 1.104 3.42 2.244 1.389 0.1069 1.567-4.417 1.247-3.099 2.422-2.351 4.346-0.1781 4.631 0.0356 3.099 2.244 0.6412 1.674 2.173 1.282 2.743-1.069 3.954-2.957 1.14-2.6 0.8549-3.063-2.315-2.458 0.3918-0.0713 2.814-1.674 2.28-4.844 3.705-2.102 1.425-1.924 0.0356-3.313-2.6-4.595 0.1069-0.3918-0.9261-1.46-0.2494-1.603-2.458-0.1781-4.488-0.9974-0.6768-0.1425-2.387z"/>
		<path onclick="click(evt)" onmouseout="clearText(evt)" onmouseover="hover(evt)" fill="#ddd" stroke="#fff" stroke-width="0.2" id="74" d="m-37.39 301.2-0.403-0.8816-1.31-1.234 0.0756-1.965 1.914-1.259-2.393-2.393-0.4534-1.662-1.033-5.113-6.347-2.141 0.806-0.5793 4.584-1.788 0.806-2.091 1.385-0.2771 0.3022-1.159 3.753-2.594 3.325-0.4534 0.2267-0.3023 2.443-0.403 1.914-1.461 2.72-2.141 3.325-0.2267 0.8816-0.8564 3.627-0.2015 0.5289-0.6801 1.159-0.0252 4.534 8.564v1.259l-3.652 3.3 0.3778 3.325 0.6549 0.7808-0.4282 0.5793-6.977 3.476-2.494 3.929-1.814 2.015z"/>
		<path onclick="click(evt)" onmouseout="clearText(evt)" onmouseover="hover(evt)" fill="#ddd" stroke="#fff" stroke-width="0.2" id="37" d="m-12.2 286.3-1.282-1.14-0.0712-2.28 3.776-3.348-0.2137-2.208-3.277-6.625-0.285-2.28h6.697l2.921-1.14 3.135-2.778 6.554-0.9261 3.918-2.85 4.132-1.496 1.71-0.0712 7.979 1.924 2.351 0.9261 5.414-0.0712 2.422 0.8549 15.03 0.2137 6.697 1.781 1.282 3.277 0.7837 2.351-0.1425 5.343-0.9974 3.633 5.984 0.3562 1.852-1.14 3.348-0.1425 2.992 1.282 1.852 2.066-0.3562 1.496-0.7837 1.71-2.565 2.565-2.493 0.9261-1.71 1.639-0.8549 3.705-0.3562 4.132 1.639 3.42-0.1425 1.71-2.85 1.425-2.992 0.2137-2.137 2.636-0.7124 1.425-4.203 3.705-0.0713 2.422-1.14 1.282 1.425 6.198 2.493 2.351 0.3562 2.351 0.7124 0.7124-0.0712 2.636-3.847 1.924-5.842 0.4987-1.14-1.282-2.066 0.1425-3.562 1.71-7.552 0.1425 0.9261-2.422 0.2137-5.771 0.8549-1.995-0.3562-3.705-16.53 0.1425-0.7837 0.9261-1.282 0.4987-1.354 2.137-1.282 1.14-1.14-1.282-0.8549-2.137-0.9974-1.924-10.19-0.2137-0.9261-1.069-1.069-1.995-0.285-1.995-2.707-2.28-1.496-0.0712v-6.483l2.493-3.847 2.921-1.852 4.417-0.9974 1.211-2.707-1.354-1.211-2.137-1.496-1.639-6.269-2.778-1.924-2.422 1.069-4.275 0.285z"/>
		<path onclick="click(evt)" onmouseout="clearText(evt)" onmouseover="hover(evt)" fill="#ddd" stroke="#fff" stroke-width="0.2" id="18" d="m26.72 364.9-11.38-3.98-6.851 0.0504-1.713 3.526-1.612 0.9068-1.511-0.7053-2.217-3.627-2.015-0.403-3.023-6.952-3.627-1.31-0.6045-2.317 2.015-2.418-0.3023-1.914-6.75-0.806-5.441-3.426-7.456-0.403 0.3022-7.355 1.713 0.1008 7.355-5.642 1.713-2.519 0.403-2.116h1.209l2.116 2.015 7.758-2.821 0.7053-3.426 1.31 0.9068 9.672 0.1008 1.31 3.929 1.814 1.612 2.62-2.217 1.108-1.511 2.317-1.411 14.41 0.1008 0.5038 2.015-1.108 2.116v6.146l-1.31 3.627h9.874l2.519 2.015 2.922 7.556 2.015-0.2015-1.108 2.519 0.3022 4.635 2.015 0.3022-0.6045 3.929-1.31 0.5038 0.403 2.922 1.914 0.806 0.1008 1.31-2.922 1.914 0.1008 2.62-3.123 1.814h-1.411l-3.023 2.116-1.612-0.2015-4.332-2.317-1.713-1.914z"/>
		<path onclick="click(evt)" onmouseout="clearText(evt)" onmouseover="hover(evt)" fill="#ddd" stroke="#fff" stroke-width="0.2" id="71" d="m14.16 426.2-2.208-2.992-0.1425-2.208 1.354-1.14-0.0712-3.562-6.625-5.201-0.7124-2.636 3.088-5.54 0.403-7.426 1.562-1.6 0.86-4.669 5.628-0.0712 1.345-1.527 3.962-2.256 0.516-2.566-0.9383-1.179-0.7614-2.79 0.1511-3.075 5.486-9.333 3.42 0.1425 1.639 1.852 5.058 2.137 1.567 0.6412 3.491 3.847 1.354 0.0712 1.211 5.842 1.069 4.417 0.9974 2.208 2.066 1.781 0.1425 1.639-5.343 1.211-0.285 4.844 1.995 3.135-5.913 2.921-2.565 3.206-0.9261 4.773-6.839 4.987-2.066 3.135-4.417-0.0712-4.132 3.705-1.639 0.4274z"/>
		<path onclick="click(evt)" onmouseout="clearText(evt)" onmouseover="hover(evt)" fill="#ddd" stroke="#fff" stroke-width="0.2" id="40" d="m14.66 427.5 4.203-3.562 1.069-0.1425 3.348-3.348 4.559-0.0712 2.992-3.99 6.341-4.773 1.354-5.272 1.924-2.28 5.771-2.921 3.135 0.285 1.639 3.847 9.048 1.639 1.852 2.066 0.3562 2.351 3.562 2.351 0.2137 1.211-1.995 1.924 0.1425 1.924 7.338 6.412-0.4987 1.425-2.066 3.705 0.3562 3.562 5.058 0.285-1.924 2.137 0.2137 3.206-1.71 0.9974-3.063 2.707 0.7124 1.924 0.2137 1.852-3.633 0.6412v2.422l-3.705 2.992-0.3562 2.422-3.42 3.135-3.847-2.351-1.781 0.2137-1.425 3.918-2.066 0.8549-3.99-7.48-3.277-2.137-2.565-4.203-3.633-0.4987-2.778-2.066-2.707 0.1425-6.412-6.198-0.9974-0.1425-3.633-3.918-1.781-4.274-2.066-0.1425z"/>
		<path onclick="click(evt)" onmouseout="clearText(evt)" onmouseover="hover(evt)" fill="#ddd" stroke="#fff" stroke-width="0.2" id="68" d="m34.61 448.4-6.625 4.132-0.0712 2.208 2.422 2.85-0.0712 3.847-1.781 4.274-1.924 1.995 0.2137 2.85-1.781 0.2137-0.2137 2.066 1.995 1.852 2.351-0.0712-0.6412 2.137-2.28 1.781-3.918 6.697-2.85 0.5699-0.4274 3.776-3.206-0.285-2.351-3.206 0.7836-2.921-5.557-5.343-1.995 4.773-3.135 3.206-0.7837 2.493-1.354 5.486-0.5699 4.061 4.631 8.905 3.847 6.056 0.4987 1.71 10.12 0.1425 8.193-1.995 4.987 1.14 1.639-0.2137 5.771-0.9261 0.4275-1.639 6.625-5.699 12.32-6.982-0.0712-3.99-1.425-1.781 0.3562-4.061 0.7837-0.4987-0.1425-3.99 0.7124-0.4274 0.285-3.99-2.137-2.351-2.85-0.4274-3.633-2.992 0.3562-6.768 1.354-0.1425-0.6412-2.137-4.061-0.9974-5.842-9.333-2.778-2.28-2.493-3.776z"/>
		<path onclick="click(evt)" onmouseout="clearText(evt)" onmouseover="hover(evt)" fill="#ddd" stroke="#fff" stroke-width="0.2" id="42" d="m7.752 450.4-0.9261-0.4274-0.285-2.244-0.7124-1.888-2.351-1.924-1.211-0.1781-1.247-1.639-1.104-0.285-5.023-5.486h-1.71l-1.247-1.995h-2.778l-0.2493 1.781-1.318 1.14h-1.567l-0.8193-0.9618-1.069 0.1069-0.4274 2.778-3.455 2.885-1.211 2.422-3.42 0.1425-0.6768 1.567-2.173 1.995-2.85 0.1781-3.883 2.707-5.058 0.3206-6.91-4.025-4.631 0.0356-2.173 1.282-6.305 0.4987-0.748-2.208-2.03-1.532 0.0712-1.389-1.567-1.247v-2.529l-3.063-1.104-1.888 2.422-5.486 0.0712-2.529-1.282v5.735l4.488 1.425-0.2137 3.277-1.247 1.354h-2.28l0.1069 5.308-1.282 2.85-5.308 4.916 0.9618 1.532 3.455 1.247 0.1781 3.242-18.59 11.04 0.1069 4.096 1.033 2.957 10.4 10.37 1.247 0.1069 3.135 4.061-0.2137 3.17-1.959 1.924-4.987 0.4274-1.033 1.247 4.096 5.699 2.351 1.817 0.0356 1.817 1.175 2.066 2.28 0.0713 0.5343 2.921 1.603 0.7836 0.6768 2.351-0.0356 3.42-8.015 1.354-3.135 4.559-1.639-0.0712-1.959-1.211-0.3206-2.458 0.8193-0.8549-0.2137-2.707-0.9974-1.175-1.781 1.745-2.992 2.957 0.1425 1.781 0.6768 0.4987-0.3562 4.844-1.425 4.31 4.738 4.025 2.743 2.173 4.025 0.6056 2.885 0.1781 4.631-2.351 1.959-0.1069 5.806 5.913 3.847 8.478 3.526 4.417 0.7837 1.852 2.387 1.069 3.206 3.242 8.763 5.094 0.3918 3.455 6.412 5.877 0.285 1.354 3.099-0.8905 3.063-2.636 3.526 0.0356 4.274-3.491 1.603-0.5699 4.346-4.809-8.264-5.343-0.748-5.949 3.526-4.275 0.4987-1.639 3.598-1.924-0.3206-5.521 7.623-0.2137 1.425-2.28 7.409-7.837 3.99 0.1781 1.175 2.458 1.603-0.8905 2.244 0.1781 1.175 1.603 2.565-0.1425 4.096-8.122 10.72-3.74 3.74 0.0356 3.206 11.11 1.852 1.71 0.8905 4.025 3.883 1.781 4.239 2.315-0.0356 3.918-0.5699 0.9618 0.8549 0.8905-0.1069 1.924-0.7837 1.069v4.809l6.804-3.705 7.837-1.888 4.773-1.175 1.674-1.995v-2.422l-1.817-1.781 0.0712-4.096-3.384-4.275-0.1069-8.478 3.598-3.384v-6.127l-8.763-8.513-1.282-0.0356-5.058-7.409-2.6-0.0712-7.623 1.282-5.201-1.425-7.908 2.28-11.08-0.1781-1.069-2.6-8.264-14.96 0.5343-5.272 2.351-7.801 3.348-3.277 1.318-4.738-0.8193-0.7837-5.343-2.885-2.529 0.0712-2.03-6.269-2.672-1.674-0.0356-1.14 1.282-4.025 1.389-0.3206 1.46-6.412 3.17-0.1069 1.354-0.5343 1.175 0.8193 1.995-0.0712 2.28-2.066z"/>
		<path onclick="click(evt)" onmouseout="clearText(evt)" onmouseover="hover(evt)" fill="#ddd" stroke="#fff" stroke-width="0.2" id="70" d="m-40.48 592.2 4.232-1.914 2.418-2.519 4.131 0.1008 4.256-3.538 1.354-0.4631 5.094-5.949-8.371-5.949-0.9974-4.951 3.455-4.203 0.5699-1.496 3.669-2.03-0.3918-5.058 7.089 0.0712 1.959-3.099 6.732-6.839 2.778 0.1069 1.567 2.707 2.244-1.247 1.603 0.2137 1.175 1.46 3.526-0.3562 4.381-8.193 9.903-3.384 3.313-0.0712 2.493 10.44 2.03 1.745 0.8193 4.132 8.442 4.061-0.1425 3.242-0.7837 1.282 0.9261 0.9974-0.0712 1.46-0.8193 1.069-0.0356 5.735-9.511 6.447-3.455 0.2137-3.206-1.639-2.778-0.0712-3.669 3.562-8.976 0.4631-9.368 2.778-2.208 2.921-0.4987 2.03-1.425-1.425-9.226 0.1425 0.1425 5.094 0.9618 3.028 1.959 3.633 3.028 2.387 0.3562 1.674 2.6 0.0712 2.921 2.85-0.2494 0.6768-1.496 0.0712-0.5699-0.8193h-3.242l-1.104 3.42-2.315 2.066-2.529 0.9261-3.491 0.1069-1.532-1.14-1.175 1.033-13.43 3.74-1.995-0.0356-1.425-2.03-0.0712-1.425 1.211-0.7837-0.3206-9.582-1.852-2.173z"/>
		<path onclick="click(evt)" onmouseout="clearText(evt)" onmouseover="hover(evt)" fill="#ddd" stroke="#fff" stroke-width="0.2" id="33" d="m-14.9 586.3 7.587-0.1425 2.208 1.852 0.8193-3.135 2.03-2.636 9.083-2.636 8.905-0.4631 3.705-3.562 2.387 0.1069 3.063 1.639 4.061-0.4987 10.26-6.91 6.982-3.669 12.65-3.099 2.173-2.458 0.2137-3.811 2.921-0.0712 8.763-4.381 2.28 0.0713 1.104 1.104 1.318 4.203 1.318 1.14 5.806 0.1781 1.532 1.674 0.2137 3.384-1.781 1.639 0.1425 3.063 1.888 5.023 4.453-0.0356 2.743 2.387-1.46 2.493-0.1069 4.203 3.598 4.844-0.2493 2.03-5.094 1.211-6.269 2.387-6.625-4.809-7.765 0.1069-0.7837 1.639-2.85 0.4631-1.389 2.565-1.496 0.1425-1.888 1.033-4.381 4.417-3.384 1.389-2.387 2.814-2.351 0.4631-0.2137 2.066-3.669 3.135-0.285 1.318-1.282 0.4987-2.885 2.743-0.0712 6.056-3.526 1.175-1.46 1.995-1.389-0.1425-1.318-2.743-4.274 0.1069-1.852 2.066-0.1069 2.672-4.096 2.458-7.195 0.3562-1.104 2.529-2.28-0.2137-4.524-0.7837-0.6412 1.069-2.672-0.0356-0.8193-0.9974-2.351 0.2494-1.247 0.8905-8.834-0.4631-2.244 3.063-6.768-0.7124-1.069 0.8905-2.814 0.0356-1.924 2.565-5.236 0.1069-2.814-1.104-2.03-1.745-0.8193-0.1069-0.3206-1.425 0.9974-0.2493 0.0712-13.14-1.318-0.0356 0.1781-2.565 13.64-4.239 0.748-0.6768 1.211 1.175 4.381-0.3562 2.458-1.033 2.493-2.208 0.9618-3.42 2.422 0.1069 0.5343 1.104 2.315-0.3918 0.6412-1.639-3.42-3.277h-2.529l-0.3206-1.567-3.206-2.422-2.493-6.127-0.0713-4.132z"/>
		<path onclick="click(evt)" onmouseout="clearText(evt)" onmouseover="hover(evt)" fill="#ddd" stroke="#fff" stroke-width="0.2" id="7" d="m-35.21 630 0.0356-11.11-1.14-0.6412 0.3918-2.636-1.532-0.748-2.565-1.069 0.1781-3.669 1.247-0.8905-0.1425-8.87-1.852-1.995-0.4987-6.127-0.3918-2.921-6.305-5.842-0.5699-3.384-8.407-4.951-3.242-3.313-2.28-0.8193-1.354-2.244-3.384-4.417-3.776-8.549-5.343-5.272-1.282-0.0712-4.559 2.315-7.552-0.6768-7.73-5.806-7.374 0.1781-6.412 2.28-2.315 2.244-2.707 0.2493-2.208-1.888-3.99 5.236-0.1069 1.674-9.048-0.0356-2.885-1.888-1.069 0.1069-0.7124 0.3918-5.877 0.0712-4.203-3.526-4.916-1.817h-4.061l-5.308 4.31-5.913 1.425-6.483 4.025-0.285 3.242 0.0712 3.705-5.201 3.277 1.603 1.639-0.2137 1.603-1.817 3.455-1.924 1.603-4.096 10.37-8.834 8.478-7.801 4.168-1.959 7.516-1.354 0.3206-0.1425 1.639 2.814 2.707 4.381 0.2493 4.096 2.672 4.595 0.1069 3.17 3.847 6.661-0.1425 4.773-1.282 1.354-2.529 3.135 0.8549 2.921-1.71 4.738 0.0356 2.529-3.918 6.875 0.0712 3.491 2.387 2.244 0.3918 0.4987 2.707 1.425 0.0356 1.959-2.957 0.8193-3.562-0.7124-2.565 0.0356-2.814 1.852-0.0356 0.1425-3.633 3.491-4.096 0.2137-1.745-1.247-0.4631 0.1069-4.88 0.8193-0.9262 0.3206-6.625 3.242-3.918 2.992-1.852 2.102 0.285 1.175 2.565 15.67-0.0356 8.228 2.6 6.732 1.318 3.028 3.526 2.921 0.1069 5.379 2.85 2.173 2.493 2.885 1.781 4.132 1.318 2.6 2.921 11.58 3.669 3.954 4.809v1.247l5.165 8.015 3.135 3.705 0.1069 2.672 1.924 0.2137 4.666 5.058 1.354 0.2137 2.422 2.6 3.242 0.1781z"/>
		<path onclick="click(evt)" onmouseout="clearText(evt)" onmouseover="hover(evt)" fill="#ddd" stroke="#fff" stroke-width="0.2" id="32" d="m-106.2 477.5-2.85 0.9961-1.533 2.564-3.098 2.779-5.023 2.209-5.557 4.736-13.07 5.486-5.984 8.193-7.232 3.205-3.348 4.916-2.85 5.557 3.812 0.1426 7.443-2.422 2.529-0.0352 1.141 2.992 4.951 6.41 9.404 3.92 2.492 2.67-0.1777 4.275 7.41 12 1.959 2.137 1.639-0.1055 2.635-2.316 6.982-2.352 6.838 0.0371 1.391-4.881 0.5332-4.346-0.9961-0.5703-0.0371-2.35 6.164-6.305-0.0371-4.773-5.307-7.908v-2.387l1.281-0.9629 3.029-0.1777 3.348-2.672 5.557-0.248 1.461-1.354 0.0703-2.637-2.207-2.992-1.318-0.2129-10.79-10.87-1.211-3.455-0.1797-2.742-4.736-2.85-1.068-3.17zm-12.25 10.39 0.3535 0.4023 1.561 0.2012 1.562 1.359 0.1016 1.664-0.5547 0.8047-0.252 1.814 0.6035 0.0508 0.2031 0.8047-1.916 1.562 0.7051 1.309h1.865l2.367 2.166 0.9062 3.426-0.0508 2.721-0.7539 1.209-0.3535 3.477-1.611 0.3516-0.6562 1.914-0.7539 3.477-2.318-0.0508-0.5039-1.057-0.8047-1.814-1.16-1.209-1.662-0.7051v-5.391l1.662-0.7559 0.1524-1.41 1.107-1.309 0.957-0.5039 0.3027-1.914-1.008-0.5039-1.512-0.9082-2.316-0.3516-0.4024-2.016-1.059-0.957 0.3516-3.777 0.9082-1.26 1.41-0.3027 0.7559-1.158 1.209-0.3027z"/>
		<path onclick="click(evt)" onmouseout="clearText(evt)" onmouseover="hover(evt)" fill="#ddd" stroke="#fff" stroke-width="0.2" id="15" d="m-123.4 555.1 0.2015-1.461 4.08-4.987-7.103-12.49 0.2015-4.181-2.519-2.368-9.219-3.476-5.289-7.153-0.6549-2.015h-1.763l-7.204 2.569-5.894-0.1511-0.8564 1.058-2.368-0.1008-1.662-0.9068h-4.131l-2.62 1.562-11.28 6.146-5.138 0.2015-0.1008 1.965 1.008 1.662-1.008 4.131-0.1511 1.662 4.635 2.771-0.1511 3.174-5.541 6.599-6.7 12.59-2.67 3.023 2.368 2.317 1.612 0.1008-0.4534 3.426-2.015 2.116 1.411 1.159 5.138-3.627 3.426-2.871h3.929l2.418 0.6549 0.6549 0.403 4.433-2.972 0.3526-6.549 7.304-4.483 5.944-1.612 5.189-4.232 4.685-0.1511 5.038 1.763 4.433 3.627 4.584 0.0504 2.065-1.008 1.965 0.2519 1.763 2.015z"/>
		<path onclick="click(evt)" onmouseout="clearText(evt)" onmouseover="hover(evt)" fill="#ddd" stroke="#fff" stroke-width="0.2" id="3" d="m-161.3 519.3 1.159 0.1511 2.015-1.965 3.375-5.592 3.375-4.786 7.556-3.577 5.743-7.859 13-5.692 5.793-4.735 4.937-2.267 2.972-2.519 1.612-2.821 3.174-0.9571 4.282 0.1008 1.713 3.426 3.123 1.713 19.14-11.33-0.2015-1.612-3.174-1.612-1.511-2.468 5.39-5.239 1.36-2.67-0.0504-6.095 2.519 0.1511 1.159-0.6045-0.3023-1.965-4.03-1.511-0.2519-7.053-8.765-2.317-5.541-4.584 0.0504-3.577-2.116-2.065-2.62 0.0504-9.823 5.592-3.224-0.1511-0.5038-1.108-1.209 0.403-2.166 3.98-7.859-0.1008-1.31-1.662-1.713-0.2015-0.6045 0.8564-3.174-0.0504-2.922-2.569-0.1008-1.814-3.325-1.209-1.662 2.771-5.793 3.224-2.871 4.03-0.0504 4.836-1.612 2.62-1.108 1.108-0.1511 1.058-1.511 0.4534-3.728 3.526-9.571 8.564-2.116 1.159-0.0504 5.642-4.685 4.987 8.01 6.095 0.6045 4.836 2.317 4.937-0.0504 3.627-4.987 4.685-1.763 0.6549-1.965 2.468-2.67 0.2519-4.635 3.627-1.965 0.2519-1.36 4.836-0.1008 2.771 4.886 2.418 4.131 3.929 6.7-0.0504z"/>
		<path onclick="click(evt)" onmouseout="clearText(evt)" onmouseover="hover(evt)" fill="#ddd" stroke="#fff" stroke-width="0.2" id="20" d="m-198.1 564.2-2.244 4.488-0.3206 2.066-2.493 2.244-3.099-0.2494-4.025-4.061-0.3562-8.015-3.384-4.809-4.168-2.957-2.565-1.033-1.888-3.242h-2.565l-2.957-3.242-0.1069-4.239-4.702-4.346 0.1425-2.885-1.282-1.033 0.3206-3.099 2.493-1.069 5.023-4.559 4.025-1.354 0.7124-3.348 1.71-1.603-0.2493-2.208-1.888-0.1425-2.422-2.707-1.069-2.315 0.0356-4.844 4.524-2.6-0.0712-1.995-3.384-2.315-0.6056-1.71-2.244-1.532 2.493-2.672 1.354-2.173 3.063-3.811 3.74-0.9618h2.422l0.5699 0.9618 11.43-0.1425 1.71 1.175 3.669-0.2137 5.379-3.42 2.066-0.0712 2.743 1.603 2.28 2.636 4.88-0.2137 1.496-4.203 0.5699-5.486 3.633-1.033 3.313-2.921 3.135 1.46 5.058 3.99 0.4274 4.274 2.351 5.201-0.1781 2.921-4.488 4.524-1.888 0.6056-1.71 2.102-3.241 0.6056-3.847 3.455-2.565 0.3918-1.496 5.414 0.0712 3.277 5.45 2.885 3.526 3.42-11.97 6.768-5.806 0.5343-0.1425 3.883 0.8905 0.9974-1.14 5.735 4.702 3.063-0.1069 1.817-5.806 7.089-6.447 12.4z"/>
		<path onclick="click(evt)" onmouseout="clearText(evt)" onmouseover="hover(evt)" fill="#ddd" stroke="#fff" stroke-width="0.2" id="64" d="m-180.2 487.4-3.277 0.1069-2.529-2.778-2.921-1.46-2.921-0.0356-5.165 3.42-3.313 0.1425-1.496-1.175-11.36 0.1425-0.7124-1.175h-2.173l-0.8549-3.384-3.42-3.099 2.315-5.45 0.2493-8.228 1.781-4.31 2.351-1.532 7.089-1.104 2.208-3.669 9.19 0.0712 4.738-2.493 5.165-0.3562 5.023-2.458 4.061-1.852 6.946-0.4631 6.305 1.175 0.9974 1.567 1.995 7.267-0.2137 1.247-3.135 3.241-2.173 1.211-0.1781 6.234-8.834 8.193-3.918 1.247-0.6768 6.269z"/>
		<path onclick="click(evt)" onmouseout="clearText(evt)" onmouseover="hover(evt)" fill="#ddd" stroke="#fff" stroke-width="0.2" id="43" d="m-158.4 456.4 8.834-8.05 0.9261-0.285 0.6768-1.46 2.066-2.707 0.0712-5.129 3.384-4.595 5.842-2.921 1.282-2.351-1.354-1.888-0.9262-3.705-1.924-3.135 2.351-2.6-0.3206-6.198-1.639-1.817-1.425-0.0356-3.526-4.168-0.0712-3.99-1.817-0.1781-0.3562-0.6056-4.88 0.0712-0.6768 0.9618-2.03-0.0356-0.7837-0.9618-2.743 0.0356-2.672-1.318-2.173-1.745-2.565-0.1069-1.745-1.567 0.3206-9.724h-9.938l-3.491-2.565-1.745-0.1425 0.0356 5.379-3.313 2.137-2.814 1.425-2.493 3.491-1.033 3.705-2.387 2.458-5.699 0.0356-4.31-1.567-0.9261 2.957-2.565 2.672-0.5699 1.852-0.285 5.236-4.738 3.99-3.42 1.603-4.738 0.6412-1.603 1.175-0.1069 1.389 1.389 2.351 0.3562 7.267 1.603 0.6768 5.379-0.9974 3.883 4.239 0.0712 3.883-0.3918 0.9618 2.458 1.674 0.1069 4.417 3.348 3.669v2.493l8.691 0.2494 4.631-2.493 5.45-0.285 8.87-4.559 7.694-0.3918 6.305 1.496 1.389 1.781 2.03 7.516z"/>
		<path onclick="click(evt)" onmouseout="clearText(evt)" onmouseover="hover(evt)" fill="#ddd" stroke="#fff" stroke-width="0.2" id="48" d="m-205.1 607.6 1.104-0.3206 1.888-7.16 7.979-4.346 8.549-8.264 4.239-10.4 1.888-1.496 1.567-2.992 0.0712-1.46-2.244-2.208-2.885-0.6056-2.885 0.4631-8.05 6.341-1.282-0.3918-1.781-1.959 2.102-2.208 0.3918-2.493-1.175-0.2137-2.102-2.066-1.71 3.17-0.2493 2.244-2.529 2.422-4.453 0.1425-4.916-4.951 0.0356-8.086-3.099-4.417-3.954-2.6-2.636-1.175-2.03-3.277-2.03 0.1069-3.776-3.811-0.0356-4.417-4.666-3.918-0.0356-3.063-1.496-1.425h-2.102l-1.567 1.175-1.389-0.2137-5.129-4.844-2.137 1.247-1.532-1.14-3.42-0.2494-3.063 1.532-1.033 1.425-20.02-0.8193-2.636-2.636-8.407-3.811-3.063 0.1425-3.242 6.162 2.102 0.3562-0.285 2.137-2.529 2.707 2.743 2.208 4.239 2.778 3.135 0.1069 0.1425 3.669-2.743 2.387-0.1069 3.242-2.814 1.496-1.14 1.354-1.46 0.0356-1.354-2.458-2.493-0.3562-2.921-0.7124-4.524 3.74 0.9618 5.521 1.567-0.285 2.173-3.384 2.458 0.1069 3.99 0.8905 2.102 2.778 2.6-0.285 2.565-0.7124 0.6768 1.033 7.73-0.1425 1.069-0.8905h13l2.422 0.8549 2.422 0.1425 1.71-1.175 7.516 0.6412 0.3918 1.425-3.633 1.069-3.491 2.173-1.71 2.208-6.483-0.9261-0.0356 4.738-1.817 0.5699 2.03 1.674-0.1069 2.458-3.206-0.0712-5.913-1.745-4.453 0.0356-3.918 0.9618-3.669-1.033-1.959 2.03-8.228 0.2494-0.8193 1.14-1.496 1.852 1.175 1.496 6.946-0.9618 1.959-0.1069 1.745 1.033 1.175-0.2493 1.781-3.954 1.888-0.7124 5.272-0.0356 3.562 0.9974 5.308 0.0712 3.526 0.0356-0.0356 3.206-1.71 1.318-3.028 0.2137 0.8193 0.6768 3.028 0.3918 1.104 1.425-0.748 2.422-1.817 0.6056-4.025 0.0712 1.033 1.532 1.781 0.1425 2.137-0.748 2.137-0.3206 1.46-1.852 1.318-3.028 2.244-0.8549 2.066-1.069 0.6056-1.14 1.532-0.3206-0.285-0.9618-1.674-1.033 0.0356-3.242 1.389-1.852 2.137 0.0712 1.104 2.173 2.387 0.9618 2.102-0.1069 0.3562-3.74 1.389-0.3562 1.247 1.318 0.1069 2.992 1.567 0.748 2.102-0.6412 2.672 0.2493 0.8905 1.247-0.1069 2.565 0.0712 1.888 2.778 1.175 3.313 0.3918 2.458 1.674 0.8905 1.603 0.9618 3.705 0.6768 0.5343 0.3206-1.425 0.8193-0.5343-0.1781-0.8905-0.748-0.4631v-2.707l1.71-1.175 1.567-1.247 2.315 0.1069 1.959 0.8905 0.748 0.9974 0.9974-0.3206 0.6768 0.9974 0.9974 0.9618 2.137 0.2494v2.173l-2.066 1.817-1.354 0.3918-0.2137 2.102 0.7124 0.8193 1.354-0.0712 2.387 1.318 0.2494 2.422-1.211 0.5699 0.2137 6.056-1.247 0.4631 0.4631 1.069 1.888 1.71 2.707 2.351z"/>
		<path onclick="click(evt)" onmouseout="clearText(evt)" onmouseover="hover(evt)" fill="#ddd" stroke="#fff" stroke-width="0.2" id="9" d="m-291.7 523.6-3.562 6.946-0.9261 1.639-2.85 1.852-2.992 0.1781-1.532-1.389 1.175-1.318 0.1069-6.127-0.8905-1.995 0.5343-2.102 0.5699-3.74-4.381-2.244-3.954-0.748-0.2137-2.03h1.603l0.8549 1.104 2.315-0.285 3.135-0.7837 2.885-0.9618 2.636-3.242-0.5699-3.598-1.175-1.033 0.2494-0.9618 2.6-0.285 1.14 1.175h3.028l4.096-3.598 3.918-4.168 3.954 0.1781 4.417 3.669 12.22-0.0356 3.028-1.924 3.455 0.1069 1.033 1.211 5.664 0.0712 3.028-3.099 2.173-4.916 3.17 2.244 8.905 0.285 2.921 1.175 2.208 2.422h1.104l0.8549 0.2494 0.5699 1.567 3.313 2.28-0.0356 1.104-4.488 2.529 0.0356 5.664 1.247 2.6 2.493 2.885 1.852 0.2137 0.0356 0.8193-2.102 1.745-0.4274 3.028-3.99 1.532-4.453 4.274-2.778 1.14-0.4631 2.529-2.493 0.1069-1.603 0.8193-0.748-0.3206-4.702-4.096-1.781-0.0712-1.389 0.8193-1.995-1.318-3.918 0.0712-2.814 2.066-0.9618 1.211-19.02-0.8193-2.422-2.351-8.727-4.025z"/>
		<path onclick="click(evt)" onmouseout="clearText(evt)" onmouseover="hover(evt)" fill="#ddd" stroke="#fff" stroke-width="0.2" id="35" d="m-298.3 406.7-4.703 3.42-4.666 1.496-2.922 2.885-1.316 0.25-2.209 2.137 0.5703 1.354 3.17 1.141 0.8184 2.457 0.7852 0.748-0.0371 2.352-2.457 1.318-1.924 1.602-0.4629 2.281 2.387 3.383 2.102-0.248 4.381 0.0352 1.426 1.887 1.496 1.711-0.0723 1.496-1.639 0.2129-1.602 0.3574-2.139 0.748-2.812 1.068 1.139 1.604-0.2852 1.424-0.8535 1.994-1.854-0.0703-1.852-0.6777-2.637-0.3906-2.172 1.816 0.1426 3.027 0.9609 2.85 3.527 2.422 1.459 4.025 1.996 4.381 11.93 0.25-0.248 2.352-2.922 1.887-3.811 0.2148-1.496-1.068-1.176 0.748-2.494 0.8535-9.047 0.1426-1.496-3.098-1.854-0.5-1.316 1.781-0.3926 3.74-1.889-1.104-0.2832-3.775-1.746-0.998 0.3555-4.311 2.422-0.8184 0.1797-1.283-2.424-2.6-1.424-5.166-2.779-1.781-2.85-0.7832-2.314 1.033-0.5352 4.133 1.639 4.131 2.494 3.312 2.564 0.9629 0.0352 3.24-2.029 1.176-1.033 1.318-2.316 2.279-2.992 0.9277-2.029-1.604-1.781 1.176-0.3203 2.564 1.709 1.496 0.748 0.5703 1.568-0.7852 1.139 0.4277 2.316 1.176 2.672 2.637 1.496 0.5332 0.0703 3.277 3.242-0.0703 1.033-2.209 0.7109-1.959 6.59-0.2148 3.74 6.84 0.7129 4.203 6.092-0.8184 8.121 6.27 4.666 0.5684 0.7129 1.604 0.1074 5.307 1.174 0.0723 0.8906 1.354 1.889-0.25 3.67-2.885 4.701-4.844 4.416 0.248 4.668 3.883 11.47-0.248 2.957-1.818 3.811-0.0352 1.639 1.318h4.488l2.957-2.494 2.779-5.77 3.668 2.494 2.529-0.1074 0.9258-2.352 1.068-3.811-3.988-4.881-4.881-2.85-8.121-0.748-1.283-4.738-7.693-1.389h-1.781l-1.461 6.482-2.6-0.1055-4.381-5.771-0.4629-2.387-8.408-2.992-5.236-4.879-7.123-2.281-1.781-3.24-0.5352-4.418-2.564-4.416-1.531-1.816 0.2852-3.848 4.238-4.773 4.025-1.033 6.59-0.248 5.521-5.166-0.4277-3.348-0.498-1.496 0.0703-10.65-3.383-5.166-0.8906-1.281-6.982-1.996zm-24.56 53.6v3.477l2.896 0.377-0.7539-1.033-0.7559-1.688z"/>
		<path onclick="click(evt)" onmouseout="clearText(evt)" onmouseover="hover(evt)" fill="#ddd" stroke="#fff" stroke-width="0.2" id="45" d="m-237.5 492.3 5.038 0.403 3.274 1.612 1.461 0.403 2.015-2.116 4.836-6.7 3.778-1.108-0.7053-3.023-3.728-3.526 2.418-6.196 0.4534-8.715 1.814-4.332 2.569-1.662 6.901-0.806 2.116-3.375-0.1008-2.871-3.426-3.677 0.0504-4.433-2.468-1.461 0.2519-1.814-0.1511-3.426-3.023-3.174-5.34 1.36-1.914-1.31-0.3526-4.584-2.67 0.1511-15.11 1.914-1.461 1.31h-6.398l-4.433-6.498-2.217-0.2519-2.368-2.972-0.1511-2.317-2.166-1.713v-4.685l-2.972 0.6549-3.829 0.1511-1.461-1.763-6.901-0.5038-1.713-1.763-1.259-0.0504-2.67-2.67-2.468 0.1511-1.159 2.116 3.375 5.743-0.1008 11.18 1.008 2.065v2.972l-5.894 5.642-7.456 0.5541-3.476 0.806-3.325 4.433-0.4534 2.922 3.728 5.944 1.058 4.836 1.259 2.871 7.153 2.065 4.735 4.735 8.362 3.073 0.7556 0.5541 0.4534 2.418 3.677 4.987 1.411 0.1511 1.612-6.7 2.871 0.3526 8.11 1.511 1.058 4.685 8.463 0.7556 4.836 3.174 4.08 5.189z"/>
		<path onclick="click(evt)" onmouseout="clearText(evt)" onmouseover="hover(evt)" fill="#ddd" stroke="#fff" stroke-width="0.2" id="10" d="m-221.9 426.9-3.224 0.2519-14.76 1.814-1.511 1.461-5.289-0.0504-4.383-6.498-2.67-0.403-1.662-2.368-0.2015-2.418-2.166-1.914v-5.189l-7.103 1.008-1.511-1.662-7.103-0.6045-1.713-1.713-1.36-0.0504-2.922-2.922-3.073 0.3022-1.159 2.217-8.312-2.368-6.7 0.0504-4.886 3.426-4.937 1.713-2.569 2.468-1.36 0.2519-1.763 1.864-1.511-0.9068-0.3022-3.023-4.282-1.209 1.461-1.562 2.72-0.2519 5.34-3.728 0.8564-2.771 2.368-0.6045 1.058-2.418 2.821-0.3526 1.562-3.929-1.662-3.123-4.03 0.7053-10.28 0.5541v-3.375l3.476-4.937 8.413-0.4534 3.476-2.519 2.468 0.1511 5.894 1.914 3.627 3.476 2.015 1.259 3.929-0.7053 8.11-4.836 2.67-5.995-0.9068-5.34 0.0504-7.254-3.677-3.677-0.2015-2.418 7.153-5.995 0.6549-1.914 5.743-0.5038 5.592 1.662 3.728-1.965 3.627-2.519 1.562 1.864 5.491-0.3526 0.9571-0.806 3.98-0.0504-4.635 6.398v2.519l1.36 8.11 3.023 4.584 0.7556 5.692 3.879 7.304 5.138 1.864 3.728 6.045 9.118-0.6549 2.771 7.355 2.368 2.166 6.549-0.7556 1.914 2.116-1.008 2.519-2.62 2.72-0.6549 2.217-0.2519 4.987-4.483 3.677-3.073 1.36-5.743 0.7556-1.36 1.31-0.1511 2.569 1.713 2.468z"/>
		<path onclick="click(evt)" onmouseout="clearText(evt)" onmouseover="hover(evt)" fill="#ddd" stroke="#fff" stroke-width="0.2" id="17" d="m-303.8 319.6-2.217 2.316 0.5547 1.914 1.863 0.0508 2.217 1.914-0.1504 4.182-1.16 0.5039-2.467 1.41-2.621 0.2012-0.3516 1.359-5.391 0.707-4.533 2.166-2.469 0.4024-4.182 2.469-3.979 1.812-3.225 1.512-0.252 2.217 1.461 1.965-0.0508 2.418-0.8066 2.418-3.576 3.777-0.957 3.225 0.1524 0.6543 2.266-1.309 6.096-3.123 0.2012-1.512-1.26-1.158-0.252-1.059 1.713-0.957 3.627-1.109 2.166-2.014 1.664-1.562 2.166-0.3027 4.029-2.719 0.252-2.318 0.957-1.209 2.418-0.0508 0.4023-0.7051-1.006-1.006 3.123-1.814 5.389-1.965 4.736-1.359-1.512-1.361 0.4043-4.131 3.424-2.82 0.1016-2.52-1.359-1.461-7.607-0.0488zm16.47 19.65-2.469 0.3516-2.064 1.863-2.67 1.059-2.67 0.8066-1.914-1.209-0.9082-0.6562-3.174-0.252-2.266-1.006-1.914 0.3008-1.914 1.512-0.5039 2.066-1.865-0.1016-3.223 3.879-1.16-0.7559-0.957 1.109-1.209 2.215-1.965 1.26-2.266-0.0508-1.109 1.008-0.957-0.9063-0.5527 5.189-2.67 0.5527-0.6562 2.822-1.41 1.057-0.1504 1.512-2.217 0.1016-1.814 0.8555-2.67-1.41-0.9062 0.957-0.957 2.016-1.41 5.541 0.3516 6.9v5.189l-2.568 4.986-1.713 0.959-1.059 2.064-1.107 3.375 1.512 1.359h5.793l8.967-1.914 5.994-1.006 4.484-0.0508 0.0996-3.477 3.83-5.643 8.764-0.3516 3.527-2.619 3.123 0.252 6.297 2.115 3.225 3.225 1.662 1.107 3.727-0.8066 7.154-4.432 2.469-5.744-0.8574-4.887 0.4043-6.801-3.578-3.879-0.4024-3.072 7.355-5.844 0.3008-1.662-6.396-3.375-1.713-2.268 0.1504-1.863 0.6562-1.812-1.26-1.361-2.166-0.2012-1.562 0.957-1.863 0.3027-1.008-1.41z"/>
		<path onclick="click(evt)" onmouseout="clearText(evt)" onmouseover="hover(evt)" fill="#ddd" stroke="#fff" stroke-width="0.2" id="16" d="m-238.2 347.8-5.844 6.801 0.1008 1.864 1.209 7.959 2.871 4.332 1.058 5.995 3.476 6.952 4.937 1.562 3.98 6.045 9.068-0.9571 2.871 7.959 1.914 1.864 6.398-0.806 2.62 2.418 4.332 1.461 5.34-0.1511 1.814-1.965 1.008-3.829 2.569-3.526 6.247-3.426-0.1008-5.642 3.476 0.2015 2.972 2.418 10.18 0.1511v-2.468l1.259-0.5541-0.0504-4.685-1.914-1.814-0.2519-4.08-0.7053-1.411 0.7053-2.418 3.627-2.771 0.3526-1.814 1.914-1.31 0.1008-10.23 4.03-4.836 2.116-0.7556 1.411-0.1511-0.0504-2.015-9.37-4.534-2.217 0.1008-3.577 3.224-8.916 0.2015-0.806-0.9571-4.987-0.1008-1.662 1.36-7.002-0.4534-3.123-1.814-2.72 3.677 4.08 0.6045 2.065 2.922 0.1008 1.259-3.274 0.3022-1.058 2.418-8.01 0.2519-1.411-1.864-4.232-0.9068-3.829 0.7053-2.821 0.9571-3.526-0.806-2.821-1.713-13.35-1.612z"/>
		<path onclick="click(evt)" onmouseout="clearText(evt)" onmouseover="hover(evt)" fill="#ddd" stroke="#fff" stroke-width="0.2" id="77" d="m-194.3 340.3 3.073 1.914 5.692 0.5038 2.317-1.612h4.584l1.965-2.368 1.159-3.829 3.274-1.159-0.4534-1.31-1.108-0.7053-1.612 1.562-1.612 0.7556-1.713-1.008-1.763 0.1008-0.5038 1.411-16.78 0.2015-2.771 2.67-3.879 1.864-3.174 0.3526-0.1511 1.662 2.569 0.9571 2.267 3.123 3.677-0.2519 3.627-4.937z"/>
		<path onclick="click(evt)" onmouseout="clearText(evt)" onmouseover="hover(evt)" fill="#ddd" stroke="#fff" stroke-width="0.2" id="41" d="m-177 341.9-0.403-0.8564 2.065-2.821 0.9571-2.569 2.72-1.36 8.564-0.9068 6.347-0.2519 1.914 0.6045 2.569-0.403 0.9068-3.577-8.665 0.2519-2.67-1.662-5.793-0.7556-7.506 0.6045-3.677-1.008 0.1511-2.62 2.418-3.929 0.7053-3.778 5.642-3.174 3.526 2.217 4.332 0.0504 5.138-3.778 2.871-0.0504 2.317-4.735 1.461-1.259 1.411 1.36 10.93 0.1008 1.763-1.461 3.325-2.468 1.713 1.259 1.209 0.2015-0.806 1.36-0.4534 1.36-1.36 1.209-1.965 0.9571-1.108 1.814 0.1008 6.045 0.806 1.31-0.2015 1.31 0.9571 0.5038 0.2015 3.224-1.914 0.3526-1.914 2.267-0.2519 6.498-3.879 6.146-4.534 0.1511-0.9068 1.058-2.771 0.0504-2.519 2.217-8.866-4.886-2.771 0.5541-3.929 3.325z"/>
		<path onclick="click(evt)" onmouseout="clearText(evt)" onmouseover="hover(evt)" fill="#ddd" stroke="#fff" stroke-width="0.2" id="34" d="m-233.7 273.5-0.5039 1.562-1.562 2.217 1.914 1.461-0.8047 4.986-3.225 3.527-6.398 11.18 0.0508 5.188 1.158 1.713 3.578-1.713 4.584 0.1524 5.943 0.9062 4.686 2.115 4.08 1.914 1.562 2.166 0.4531-1.461 2.266 0.252 0.707 2.166 4.432 0.4043h3.678l1.059 0.8047 1.662 0.3535 1.914-0.5039 2.82-0.8555 1.562-0.8066-0.8574-1.26-0.252-1.41 0.6562-0.7559 1.41 0.2012-0.1016 1.311 1.361 0.252 2.115-2.57 0.7559-1.611 0.5547-1.059-0.8066-0.7051-0.1504-1.611 1.611-0.7051 0.3027-1.311 1.611-2.82-6.297-0.7051-15.26-7.205-15.67-10.22-6.6-5.543zm45.69 25.94-2.871 2.721 0.3027 2.117 0.3027 0.7051-2.52 3.426-1.812 2.467 0.0996 2.268 2.318 1.764 1.662 0.3516 1.008 1.059-0.0508 1.611 1.512 1.41 1.662 0.252 0.4531 0.8574 1.713 0.3027-0.2012 1.662 3.273 2.014 2.619-3.424 0.9082-4.535 7.002-4.029 3.727 2.518 3.779-0.4024 4.584-3.021 3.123-0.6055 1.512-4.182-11.08-2.316-15.01-4.938-8.01-0.0508z"/>
		<path onclick="click(evt)" onmouseout="clearText(evt)" onmouseover="hover(evt)" fill="#ddd" stroke="#fff" stroke-width="0.2" id="22" d="m-305.4 319.2 0.0504-2.217-1.713-1.511v-8.262l1.612-5.189-2.468-1.713 0.3022-1.411 1.411-0.5541 2.922-0.0504 4.836-3.174 4.03-3.98 0.2015-4.987-1.461-2.267-0.1511-7.758 5.995-8.665 0.5541-1.763-2.468-0.8564-0.9068-1.36 0.1511-1.864 4.181-4.937 0.0504-15.92-3.476 0.1511-1.763 0.9571-1.612 0.2015-7.002-0.1511-0.7053-1.008-0.5541 0.2015-3.123 3.073 0.1511 3.577-2.116 2.468-2.368 0.2015-1.411-1.008-4.131-0.0504-2.116 3.174 0.403 1.814 1.562 2.418 3.526 0.8564 1.058 1.662 1.713 0.806 0.4534 1.36 1.159 1.008 1.965 0.3526 0.2519 2.065-0.9571 0.5541v9.471l0.9068 0.5038 0.1008 2.569-0.7556 2.62-3.426 0.9571-0.9068-1.209-0.9571 0.7053-2.418 1.511-0.1008 1.511-2.519 0.2015-0.7556 0.9571-3.98-0.1008-0.3022 3.677-0.403 8.463 1.411 0.9571 0.1511 2.267-1.058 1.058 0.0504 2.972-3.426 1.108-5.138 5.289-3.073 2.166-0.1511 2.62-3.879 1.612 0.3022 5.39 1.814 1.108 4.786 0.9068 3.174 0.806 2.166-0.3526 0.6045-0.9571 2.871 0.2519 0.2015 0.8564 1.965-1.209 1.159 0.5038 1.058 1.058 1.31 0.7053 1.914-1.209 0.6045-0.7556h6.851l0.2015-3.476z"/>
		<path onclick="click(evt)" onmouseout="clearText(evt)" onmouseover="hover(evt)" fill="#ddd" stroke="#fff" stroke-width="0.2" id="59" d="m-303.5 318.6-0.806-0.5038 0.0504-1.662-1.864-1.562v-7.456l1.763-5.189-2.166-2.468 0.5541-0.5541 3.073 0.2519 5.441-3.829 4.08-4.282 0.4534-5.793-1.31-1.713 2.418-0.806 1.612-0.7556 2.267 0.2015 2.166 1.763 2.267 0.8564 5.844 0.2015 4.987 5.34 2.871 1.058 2.368-0.806 5.239-0.3526 0.2519-6.247 3.375-4.232 6.448-2.267 7.204-2.065 4.886-2.116 5.592-0.0504-0.7556 1.411-1.814 2.217 2.166 2.166-0.7053 3.929-3.375 3.526-6.347 11.33 0.1008 5.743 1.36 2.217-2.821 3.627-2.468-0.2015-2.72-2.368-3.123-1.763-4.685 0.2015-1.259 1.159-6.549 0.2519-2.67 4.131-0.1511 2.922-2.166 2.065-5.995 5.441-0.403 1.511-6.398 3.829-1.965 1.612-5.491-0.2519-3.224 2.821-1.461-0.9068-0.1511-3.023 3.577-2.972 0.2015-3.224-1.612-2.368z"/>
		<path onclick="click(evt)" onmouseout="clearText(evt)" onmouseover="hover(evt)" fill="#ddd" stroke="#fff" stroke-width="0.2" id="39" d="m-287.3 240.9 0.1008 15.87-4.181 5.289-0.3022 1.159 0.9068 1.209 2.217 0.3526 0.403 1.914-1.058 1.814-5.541 8.161 0.0504 5.894 3.829-1.209 3.224 0.1511 2.871 2.267 1.763 0.403 6.045 0.1511 4.483 5.34 2.569 0.9068 2.468-0.7556h4.232l0.1511-6.347 3.476-4.332 14.26-4.534 4.987-2.065 6.146 0.0504-0.3022-1.763-1.461-1.058-0.0504-3.929-2.166-1.965 0.0504-2.418-2.317-4.181-0.2015-4.282 1.411-2.317 2.569 0.3022-0.2015-2.821-1.662-1.914-4.483 0.3022-0.7556-0.806-2.418 0.1511-0.5038 1.411-3.879-0.3526-0.403-1.411-0.9571 0.1511-1.058 1.562-2.116-0.3526-2.821 1.058-1.965 0.806-1.864-1.31-1.36-1.411-2.821-1.864-1.713-1.662-0.3022-3.023-3.829-2.569-2.72-0.4534-1.461 1.008-1.411 0.1008-2.569-0.403-0.2015-0.806-3.123 0.0504-1.713 1.864z"/>
		<path fill="#ddd" stroke="#fff" stroke-width="0.2" id="null" d="m-192.1 317.7-0.8047 0.7559 0.7305 0.7812 0.7051-0.7559-0.6309-0.7812zm-3.854 1.891-0.4785 0.7793 0.4277 0.4531 0.7051-0.8555-0.6543-0.377zm4.207 0.0234-1.385 0.6816 0.957 0.9062 0.7305-0.5293-0.3027-1.059zm0.9824 0.8574-0.1758 1.914 1.082 0.5039 0.2012-2.293-1.107-0.125zm3.174 0.9062-1.311 1.537 0.127 1.561 1.637-0.125 0.3027-1.336 0.0234-1.184-0.7793-0.4531zm2.316 2.797-1.158 0.7051 0.7559 0.8301 0.4785 0.0508 0.6543-0.4785-0.7305-1.107zm-77.9 4.148-1.854 0.8555-2.564 0.1074-0.1055 1.389 0.3906 1.711 1.105 0.8184 3.525-0.2129 1.496-1.461 1.924 0.1074-0.1777-1.604-0.4629-0.5-2.244 0.0371-0.25-0.7852-0.7832-0.4629zm-5.451 1.496-0.9258 0.3926-0.2129 0.498 0.8555 0.3574 0.6055-0.3926-0.3223-0.8555zm8.799 7.588-1.033 1.461v0.7832l2.529 2.137 0.7129 1.924 0.6055 1.389 2.314 0.3223 1.141 0.4629 2.494-0.8906 2.777-1.318 2.279-1.176-0.0352-1.033-2.6-1.424-2.137-0.4277-3.277-0.7129-3.029-1.141-2.742-0.3555zm-7.693 0.9258-0.9258 0.25-1.07 1.141v2.457l0.8203 0.25 0.7832-1.781 0.8203-1.105-0.4277-1.211zm2.492 0.1426-0.6406 0.3574-0.3555 1.459-0.6055 0.4277 0.0703 0.6777 3.492 0.0352 0.498-0.6777-1.104-1.104-1.355-1.176zm42.58 1.617-0.2012 1.863 0.6055 1.084 1.283-0.252 0.1777-1.311-0.6797-1.334-1.186-0.0508zm-127.2 6.932-1.318 1.068-3.205-0.1426-1.924 0.5352-3.312 1.568-1.141 1.174 1.213 1.068 1.281 1.105 2.957 0.3555h1.959l1.709-0.0352 1.105-0.6055 1.354-0.0723 2.422 0.1074 1.104-0.8906 0.1074-1.496-0.5352 0.2148-1.316 1.104-0.3203-1.246 1.104-1.176-0.3926-1.318-1.389-1.318h-1.461zm9.902 16.74-2.029 0.0723 0.0703 1.068 1.854 0.0352 0.1055-1.176zm-8.371 4.738 0.0723 2.457 2.314 1.033 1.318 1.068 1.461 0.0723 0.3926-2.707-0.2852-1.854-5.273-0.0703z"/>
		<path onclick="click(evt)" onmouseout="clearText(evt)" onmouseover="hover(evt)" fill="#ddd" stroke="#fff" stroke-width="0.2" id="31" d="m147 652.6-0.5038-3.023-2.972-1.31-1.411-0.6549-1.965-0.1511-0.403-3.98-2.418 0.403-0.806 1.511-0.9571-0.3023-0.0504-0.9068 3.073-2.67-0.0504-3.224-1.662-2.972-4.987-9.219-2.771-2.972-0.2519-2.72 1.914-1.965 1.209-0.2015 1.562-2.62 1.562-2.468 3.426-1.108 5.138-5.491 4.886-1.562 1.965-3.526 0.1008-3.577-1.259-1.31 0.2015-2.468 1.108-1.763-0.2519-1.511-1.713-1.763-1.108-3.325-5.34-3.123-2.67-0.3022-0.1511-1.562 1.864-3.224 2.317-0.806 1.763 1.159 4.937-0.3022 2.67 1.814 1.209 1.914h4.433l0.6045-1.209 2.72 0.2015 1.259 2.821 2.922 2.569 3.476 2.368 3.174 0.8564 0.4534 1.914-2.217 0.1511-0.6549 2.116-0.403 2.267 1.209-0.1511 0.1511 1.108-1.814 1.108-1.562 1.562 0.5038 4.584 0.806 0.5541-0.2519 1.108-0.7556 0.9068-1.159 2.922 0.1008 5.138 2.771 2.922 0.2519 2.569 1.562 0.3526 1.008 2.015 1.36 1.461-0.1008 2.065-2.267 1.159-3.325-0.3022-1.662-1.008-1.511-0.1008-1.31 0.806-1.562 1.31-2.519-0.0504-2.065 1.713 0.3526 7.002 0.9571 0.8564-0.2015 1.259-1.36 0.8564 0.5541 0.9571-0.5038 0.7556-1.209 0.3526-1.562-0.9571-1.612 0.2519-0.403 2.821h-3.375l-1.713 2.116 0.0504 5.894-0.1008 1.461z"/>
		<path onclick="click(evt)" onmouseout="clearText(evt)" onmouseover="hover(evt)" fill="#ddd" stroke="#fff" stroke-width="0.2" id="1" d="m85.48 594 5.414-2.066 5.058-1.14 0.8549-0.6412 0.2137-2.422-3.705-4.916-0.0712-4.061 1.71-2.636-3.135-2.85-4.488-0.0712-1.781-4.559-0.0712-2.493 1.924-1.71-0.1425-3.918-2.137-2.351-5.557-0.2137-1.069-0.8549-1.425-3.847 0.4987-1.354 2.778-0.8549 2.565-3.063 0.1425-11.97 0.8549-0.5699 7.694-0.0712 4.987-2.137 4.417-3.206 5.842-0.2137 9.119 2.85h1.924l1.639-1.995-0.0712-8.763-1.211-0.9261 0.4987-1.639 3.206-3.063h2.85l8.05-5.414 2.208 0.0712 3.918-5.699 0.1425-1.924 4.417-6.625 6.127-5.842 2.921 0.1425 1.71 2.137h2.351l1.781 1.71 1.282 5.486 0.6412 0.9261-3.063 6.056 0.1425 8.62-2.208 2.707 0.0712 3.277 1.14 0.5699-0.0712 3.776-1.924 4.702-2.208 2.137-9.048 0.285-5.272 9.618-0.2137 3.847-1.995 2.493 0.1425 4.132-3.847 3.918-0.1425 3.063 2.28 1.069 0.1425 1.567-2.066 2.636v1.567l3.491-0.4274 2.992-1.924 1.567 0.1425 2.137 2.137v8.976l-1.924 0.9261-3.562 5.486-3.348 4.132-1.496 2.565-1.211-0.3562-0.5699 1.496-1.639 1.567-3.633-0.2137-3.847 1.852v3.918l-1.069 3.705-0.8549 1.496h-10.26l-2.066 2.707h-1.425v-1.567l-3.776-0.285-2.422-2.28-2.778-1.567-2.137-1.14-2.636-1.354-0.9261-1.211-1.995-0.6412z"/>
		<path onclick="click(evt)" onmouseout="clearText(evt)" onmouseover="hover(evt)" fill="#ddd" stroke="#fff" stroke-width="0.2" id="79" d="m175.9 587.4 1.108-2.065 3.224-2.065 4.987-1.511 1.159-1.763-0.2015-3.426 2.065-2.015 1.058 2.065 1.562 0.1511 1.058 1.612 0.9571 4.635 7.758 2.166 2.771 3.123 2.217 6.196 4.584 0.1511 0.5038-2.871 7.456 4.181-0.6045 0.6045-2.418 1.411-1.209 2.116h-1.662l-4.534-1.914-12.14-0.3022-1.562 2.418-0.4534-1.814-1.965-0.6549 0.6549-0.8564 0.4534-0.5541v-2.871l-4.786-1.965-7.153-1.008z"/>
		<path onclick="click(evt)" onmouseout="clearText(evt)" onmouseover="hover(evt)" fill="#ddd" stroke="#fff" stroke-width="0.2" id="27" d="m218.4 594.6-6.75-3.929-1.965 0.2015-0.403 2.72h-2.267l-2.418-5.894-2.871-3.224-7.909-2.217-0.9068-4.131-1.159-1.814-1.965-0.7556-1.159-2.015-3.375 2.166-0.0504 3.728-1.008 1.612-4.534 1.209-3.929 2.368-2.015 3.627-3.375-0.9571-6.347-4.584-0.806-2.771 2.267-6.952 7.556-7.506 9.874-4.886 0.9068-3.627 2.166-0.1511 1.965 2.317 1.662 5.239 2.62 2.771h2.267l6.448-6.347 0.9068-0.1511 6.901-4.836 1.965-2.015 5.138-0.0504 3.778-2.871 1.259-5.189h3.375l1.36-1.713 1.461-0.0504 2.418 2.67 7.053-0.2015 2.922 1.411 0.1008 3.375-4.685 2.368-1.411 4.886-1.461 1.662-0.0504 8.765 1.713 2.62v2.065l2.569 2.468 2.217-0.1511 1.058 1.008 0.1008 3.274 1.662 1.814-0.0504 2.217 0.8564 0.403v2.317l-5.491 1.36-7.405 4.03h-6.247l-1.36 2.317z"/>
		<path onclick="click(evt)" onmouseout="clearText(evt)" onmouseover="hover(evt)" fill="#ddd" stroke="#fff" stroke-width="0.2" id="80" d="m143.1 575.7 1.008-0.1511 1.612 1.159 4.635-0.2015 3.274 1.914 1.259 2.166 2.72-0.1511 0.6549-1.31 3.627 0.3022 2.519-6.801 7.707-7.758 2.116-1.159-5.441-8.413-2.67-1.259-3.325 0.3526-2.821 1.461-7.304-0.1008-2.468-4.685 1.008-2.065 1.159-5.995v-3.829l-3.274-1.31-0.1511-1.411 1.814-1.864h1.662l0.1511-0.9571-8.513 0.5541-5.138 9.068-0.403 3.929-2.065 2.166 0.2015 4.433-3.677 3.929-0.3022 2.015 2.217 1.411 0.0504 1.864-1.965 2.922v0.403l1.814-0.2015 3.325-2.116 2.67 0.1511 2.468 2.418z"/>
		<path onclick="click(evt)" onmouseout="clearText(evt)" onmouseover="hover(evt)" fill="#ddd" stroke="#fff" stroke-width="0.2" id="46" d="m175.1 563.3-5.441-8.665-3.375-1.662-3.728 0.4534-2.922 1.562-6.398-0.1511-2.015-3.778 1.108-1.713 0.9571-6.196-0.2015-4.232-3.325-1.662 0.0504-0.6549 1.159-1.159h2.116l0.3526-2.569 2.267-1.914 1.662-4.483 0.0504-4.534-1.411-0.5541-0.0504-2.569 2.468-2.771-0.4534-8.715 3.325-5.944 1.411-0.3526 1.814-1.814 1.914-5.944 3.929-4.836 5.39 0.3526-0.1008-4.433-0.7556-0.4534v-1.965l1.159-0.7053 3.476 0.1511 13.95-2.871 11.23-1.108v1.662l-3.526 2.972-0.2015 2.72 7.607 1.511 4.181 3.224 2.972 1.612 4.131 0.3526 1.965 1.612 4.181 7.002-0.1511 4.282-3.728 3.98-2.267 1.864 0.2015 6.549 0.5541 0.4534 0.0504 4.987-3.023 2.72-1.461 0.3526-2.771 2.922-0.3022 4.282-2.72 3.526-0.0504 2.166 4.383 2.871 3.073 0.1511 2.418 4.08-1.36 5.138-3.325 2.519-5.088 0.0504-2.468 2.519-6.801 4.332-1.108-0.1008-5.995 6.247-1.662-0.1511-1.864-1.814-1.662-5.289-2.317-2.519-3.274-0.1008-1.31 3.98z"/>
		<path onclick="click(evt)" onmouseout="clearText(evt)" onmouseover="hover(evt)" fill="#ddd" stroke="#fff" stroke-width="0.2" id="51" d="m82.13 535.5-0.1008 11.99-2.217 2.62-3.123 1.108-4.383 0.3022-8.614 4.08-3.98 0.2519-0.2519-3.829-3.375-4.483-0.1008-7.909 3.677-3.224v-7.254l-8.866-8.765-2.065-0.2519-4.534-7.153h-2.368l0.0504-1.209 6.549-5.743 12.64-7.506-0.3022-4.282-1.461-1.965 0.1008-1.965 1.511-0.8564 2.015 1.662 1.31 0.3526 2.166 2.62 9.219-0.2015 0.3526 1.008 3.526 0.1008 4.131-2.166 4.181 0.2015 1.763 4.332v3.98l2.166 2.972 6.75 0.7556 3.98 3.426 0.6045 8.564-0.6549 1.662 0.3023 2.368 1.008 0.2015-0.0504 0.9571-1.763 1.562-2.217 3.98v1.562l-4.131 3.123-4.232 1.612-8.463 0.2015z"/>
		<path onclick="click(evt)" onmouseout="clearText(evt)" onmouseover="hover(evt)" fill="#ddd" stroke="#fff" stroke-width="0.2" id="50" d="m60.52 488.4 1.461 0.3526 1.259 1.562 1.562 0.2519 2.166 2.569 9.37 0.0504 0.7052 0.9571h2.065l3.829-1.965 0.0504-4.383 3.677-3.677 1.159 0.2015 5.138-4.987v-1.914l-2.67-4.232 0.1008-5.743-2.569-1.864 0.1008-2.015 2.871-7.103 0.6549-9.974-6.498-7.053 0.3022-4.534 0.806-0.806-0.403-1.159-2.166-0.3526-5.944-4.483-1.763-0.0504-2.418-2.67-1.259 0.1511-0.403 1.763-1.914 3.174 0.2519 2.418 5.34 0.6549v0.9571l-1.864 2.065-0.0504 2.972-4.483 4.08 0.7556 3.224-0.5038 1.259-3.174 0.3526-0.1008 2.217-3.476 2.519-0.5038 3.174-3.677 3.274-4.635-2.67-1.058 0.4534-1.159 3.426-2.217 1.209 0.4534 1.058 4.03 1.36 0.7556 3.123-1.763 0.3526 0.1008 5.39 2.821 2.72 3.023 0.5038 2.317 2.569 0.3022 0.5541-0.403 4.534-0.6549 0.6549z"/>
		<path onclick="click(evt)" onmouseout="clearText(evt)" onmouseover="hover(evt)" fill="#ddd" stroke="#fff" stroke-width="0.2" id="38" d="m83.79 491.9 0.0504-3.677 3.123-3.123 1.562 0.5038 5.592-5.995v-2.569l-2.972-4.433 0.3526-6.045-2.67-1.562 0.1008-1.36 3.073-7.254 0.2015-5.239 3.829-0.2015 0.2519 1.713 4.483 0.1511 0.2519 1.058 5.038-0.1008 3.829-3.98 2.468-1.612 2.771-0.2519 0.7556-1.461v-2.871l-2.015-1.562 1.108-1.36h3.677l0.2015-1.058 4.937-0.0504 4.886-5.491 1.965-0.3526 1.411-0.9068 3.325 3.123 0.1511 3.98 1.965 0.7053 3.174 3.778 2.267-0.1008 0.1008 1.259 14.61-0.3022 1.562-1.713 1.612 0.3526 1.36 1.259 4.433 0.0504 5.541-3.829 4.635-0.1511 0.5541 3.375 4.131 3.274 5.189 1.159 1.008 2.871-1.713 3.476-5.39 6.851 0.4534 2.267-1.965 0.3023-2.166 1.562-2.569 4.08 1.914 3.174 1.914 2.922-1.259 3.929-1.713-0.1008-1.259 1.008 0.1511 2.821 0.806 0.9068-0.1511 2.368-4.937-0.1008-4.181 5.239-1.31 5.189-1.008 1.36-2.065 1.209-0.6549-1.058-1.36-4.685-2.418-2.368h-2.368l-1.713-2.217-3.476 0.0504-6.297 6.045-4.635 6.801-0.1511 1.914-3.627 4.937-2.67 0.1511-7.355 5.289-2.922 0.0504-3.476 3.426-0.6045 2.116 1.209 1.511 0.1008 7.808-1.31 1.461h-1.209l-9.017-2.771-6.75 0.1008 0.3526-1.259 1.814-3.476 2.015-1.612 0.0504-1.713-1.411-0.6549-0.1008-1.511 0.9571-1.763-0.6045-8.916-4.534-4.03-6.901-0.7052-1.662-2.418 0.0504-4.08-2.015-4.735z"/>
		<path onclick="click(evt)" onmouseout="clearText(evt)" onmouseover="hover(evt)" fill="#ddd" stroke="#fff" stroke-width="0.2" id="58" d="m177.7 480.5 1.817 0.1425 13.86-2.85 12.18-1.389 4.025-6.946 4.809-3.847 1.354-0.7124 0.2493-2.778-2.672-2.672-0.285-4.346 1.175-0.9618v-0.9974l-0.8193-0.3562-1.247-2.422 1.318-2.244h7.943l3.099 3.028h1.603l2.6-6.447 18.91-1.567 3.669-2.885h3.455l0.8905-2.458 0.1781-7.658-1.033-2.244 0.9618-1.852 0.0712-1.924 1.46-0.3206 0.1069-1.781-3.669-2.208-0.8549-5.664 1.674-1.496-1.924-3.598v-1.781l4.274-8.086 2.493-2.529-0.0356-1.959-4.168-2.458-0.1069-3.42 1.995-2.066 3.633-0.0712 2.315 2.28 1.924-0.285 1.674-1.745 6.625-0.1069 1.354-2.315-0.0712-2.885-8.264-1.318-2.814-2.03-0.1069-1.674-4.738-0.7124-3.883 0.7124-8.834-3.776-0.3918-3.74 0.9974-0.3562 0.0356-5.094-2.921-4.631-0.0712-4.916-7.089 1.46-1.71 1.745-1.247 6.198-5.984 0.1069-1.924-2.137-1.282 0.0712-0.3206 3.811-3.633-0.1069-2.208-2.315-0.2137 3.562-3.491 2.885-1.425-0.1781-2.85 3.028-0.0356 4.274-0.9974 1.282-6.305-1.924-5.486-0.1069-2.529-1.14-1.745-2.244-1.674 0.0712-4.096 2.173-5.201 0.0712-0.9974-0.9618h-4.346l-3.17 1.817-1.781 3.526-1.282 8.834-1.282 1.567-3.099 1.282-5.45-0.9262-13.5 0.0712-0.8193 0.8905-6.127 0.0712-2.173 2.137 0.0713 2.137 4.096 2.493 0.3206 4.88 2.636 2.6 1.995 5.557v1.639l-0.9618 1.282-0.0712 1.389-3.598 5.984v2.458l-3.206 3.633-1.674 0.4987-5.308 3.348 0.0712 1.496 3.562 3.669 0.0713 3.598 2.066 0.5699 2.778 3.455 2.493-0.0356 0.1069 1.282 13.68-0.2493 1.781-1.995 2.03 0.6412 1.389 1.354 4.061 0.0356 5.592-4.096 5.343-0.0356 0.6056 3.811 3.633 2.885 5.486 1.425 1.211 2.992-1.781 4.096-5.272 6.804 0.5699 2.565-2.387 0.6412-2.066 1.211-2.173 3.633 3.633 5.877z"/>
		<path onclick="click(evt)" onmouseout="clearText(evt)" onmouseover="hover(evt)" fill="#ddd" stroke="#fff" stroke-width="0.2" id="66" d="m92.46 450 4.483-0.0504 0.2015 2.015 4.383 0.1008 0.5038 1.159 3.778-0.3022 3.778-4.03 2.317-1.461 2.67-0.3526 0.5541-1.159v-1.864l-2.267-2.065 1.612-2.267 3.526 0.2015 0.3022-1.461 5.088 0.1511 4.886-5.39 3.174-1.008-0.0504-1.763 5.642-3.677 2.267-0.6549 2.569-3.174-0.0504-2.972 3.526-5.39-0.0504-1.662 1.108-1.058v-1.159l-1.965-5.189-2.922-2.62-0.0504-4.786-4.232-2.972 0.1008-2.62 1.461-1.31-2.065-3.375-0.1511-4.08-2.317-1.914-3.375-0.0504-11.84 0.7053-3.274-3.98-1.511 0.0504-2.519-5.239-12.19-0.2015-0.9571 1.108-0.0504 6.045-1.058 5.541-1.259 1.31-10.23 2.065-0.1511-2.922-3.526 0.0504-8.362 1.965-1.31 1.612-5.038 0.0504-2.569-2.317-2.871-0.0504-0.6045-0.7052-1.461 0.1511-0.6549 0.9068-4.534 2.519-5.138 0.5038 0.0504 0.8564-5.491 1.108-0.2519 3.677 2.468 3.879 3.829 0.3526 1.209 3.627 9.874 2.015 1.058 1.662 0.5541 2.922 3.526 2.116 0.2015 2.015-1.864 2.015 0.0504 1.31 7.204 6.247 1.662-0.0504 2.368 2.62h1.965l5.491 4.383 2.72 0.5541 0.403 2.116-0.806 1.209-0.2015 3.274 6.599 7.506z"/>
		<path onclick="click(evt)" onmouseout="clearText(evt)" onmouseover="hover(evt)" fill="#ddd" stroke="#fff" stroke-width="0.2" id="19" d="m50.24 389.9-0.403-1.612-2.217-1.461-0.9571-2.166-2.317-10.73-1.763-0.0504-2.922-3.174 2.62-2.267 1.259-0.0504 3.627-2.015 0.3526-2.821 3.073-2.116-0.2015-2.166-2.418-1.209-0.1511-1.511 1.411-0.5541 0.4534-5.088-2.217-0.403-0.3526-3.778 1.662-3.728-2.922 0.2519-2.771-7.053-2.468-2.015 2.217-1.461 1.713 0.1008 1.259 1.31 6.65-0.806 4.03-2.317 0.1511-3.728-0.7556-0.9068-0.6045-2.418-2.519-2.267-1.159-5.289 1.008-1.259 0.3022-2.368 4.433-3.728 2.217-3.526 3.224-0.1511 1.763-1.008 8.362 0.2015 12.54 7.355 1.562 5.038 6.549 3.023-0.0504 2.569-1.108 8.01-1.511 1.814-0.1008 2.015-0.8564 0.6045v1.108l1.159 0.2015-0.1008 3.375 3.123 4.131h2.116l1.612-1.259 4.786 0.1511 3.98 3.174 0.3022 1.662 3.577-0.2015 4.232 4.937 1.36 0.0504 0.0504 1.965-4.635 4.534-0.5541 2.72-2.065 2.217-0.2519 2.317 0.9068 0.6045 0.2015 2.569-2.166 2.922-8.564-0.0504-1.411 1.662 0.1511 6.448-1.058 5.289-0.8564 0.806-8.816 1.914-0.3022-2.871-4.584 0.1008-8.614 2.065-1.36 1.763-4.383-0.3022-2.468-2.368-2.519 0.1008-1.159-0.6549-2.166 0.3526-0.5038 1.058-4.03 2.317z"/>
		<path onclick="click(evt)" onmouseout="clearText(evt)" onmouseover="hover(evt)" fill="#ddd" stroke="#fff" stroke-width="0.2" id="57" d="m65.81 303.2 0.3562-2.066-1.852-3.562 1.069-7.195 1.71-1.282 2.778-0.8549 3.491-3.776 0.2137-3.562-2.992-2.85-2.707-0.6412-4.844 0.2137-1.354 1.069-3.633-0.2137 0.3562-2.351 0.1425-6.127-1.924-5.414 2.351 0.7837h1.069l4.916-1.639 2.28 0.0712 5.272 1.14 4.631 0.7837 3.633-0.285 2.921-1.425 1.567-1.354 1.425-0.1425 1.924-2.565 1.14-2.422 1.496-1.425 1.14 0.2137 0.9974 1.639 0.4274 1.425 2.137 0.5699 1.425 1.852-1.354 1.14 0.0712 5.129 1.852 1.354 0.0712 2.137 2.565 2.493 0.1425 1.852 2.137 1.781 0.8549-0.1425v2.28l2.992 0.4987 5.129 2.28 1.852 1.781 1.496-0.0712-0.4275 1.639-2.565 3.277-0.0712 3.491-1.639 1.995-0.1425 4.203 1.71 2.921-1.995 2.28 0.0712 1.354-2.992 2.921-3.918 0.285-2.351-2.707-2.707-4.488-0.7124-2.208-2.066 0.5699-5.058 2.565-2.066 2.422v2.066l-3.562 3.633-11.47-7.053z"/>
		<path onclick="click(evt)" onmouseout="clearText(evt)" onmouseover="hover(evt)" fill="#ddd" stroke="#fff" stroke-width="0.2" id="55" d="m94.07 319.3-6.297-3.073-1.965-5.692 3.325-3.677-0.1008-1.713 1.814-2.317 5.138-2.418h0.9571l0.9068 2.116 3.274 5.239 1.713 1.864 4.483-0.1511 3.728-3.526 0.1511-1.965 1.914-2.116-1.965-3.476 0.1511-3.325 1.965-2.368-0.1511-3.325 2.468-3.325 1.814-1.209 5.34 0.1008 11.33-4.232 1.662-1.36 2.922 0.1511 6.851 7.405-0.3022 9.017 2.72 3.426-0.2015 0.6045 3.274 2.62-0.1511 1.31 4.08 0.6549 0.1008 2.569 1.965 2.166 8.11-0.0504 1.965-2.871 2.871-4.836 0.9068-0.806 1.008 1.209 7.909 1.259 4.635 3.577 1.914 0.7556 1.562 1.562 0.2519 3.929 2.972 1.814 2.922 0.4534-1.864 1.662-5.894 1.058-0.4534 2.972-5.289 6.7-5.289 0.6549-2.569 2.015-1.259-1.31-5.34 0.3023-4.534 1.511h-3.929l-2.368-1.209 0.7556-1.511 0.9068-0.0504-0.2519-2.267-7.254-0.7556-2.166 2.166-0.2015 2.72-4.735 4.232-4.282 0.0504-8.715-2.821-6.75 0.1511-2.821-3.577-5.34-0.403-0.9068-1.713 1.209-1.209-0.1511-2.569-5.692-0.1008-5.189 2.015-2.468 0.1008-4.131-4.786z"/>
		<path onclick="click(evt)" onmouseout="clearText(evt)" onmouseover="hover(evt)" fill="#ddd" stroke="#fff" stroke-width="0.2" id="5" d="m94.42 320.2 2.267-0.1511 3.98 4.735 3.224 0.0504 5.189-2.065 4.584 0.0504 0.0504 1.612-1.209 1.662 1.008 1.914 5.844 0.9068 2.821 3.627 7.053-0.2519 8.564 2.871 4.735-0.2519 5.39-4.635 0.3526-2.821 1.562-1.562 6.045 0.4534 0.0504 0.9068-0.806 0.3022-0.9571 2.065 0.2015 1.008 2.922 1.259 1.612 0.0504 0.1511 4.836h3.073l0.5541 1.008-0.4534 0.6549-2.368 0.3526-1.008 1.209-0.3022 7.556 1.36 1.612-0.6549 0.806-1.914-1.259-6.247 0.5038-0.0504 3.174 1.814 1.259-0.2015 1.209-1.411 0.3526-2.468 2.67-2.166 1.108-6.75-0.1511-0.7556-2.67-1.159 0.1511-0.9068 1.008-4.635-0.1511-1.461-0.9571-0.6045 3.375-4.08 3.627-8.816 4.181-2.72-0.1008-2.771 5.34-3.426-0.0504 1.914-3.375-0.2015-3.073-0.8564-0.5038 0.1511-1.914 2.519-2.317 0.3526-2.317 4.534-4.433 0.0504-2.821-2.368-0.5038-3.98-4.786-3.174 0.1008-0.3022-1.259-4.483-3.426-5.239 0.0504-1.411 1.108-1.562 0.1008-2.922-3.829 0.403-3.778-1.31-0.1008 1.159-1.008-0.1511-2.015 1.662-1.965z"/>
		<path onclick="click(evt)" onmouseout="clearText(evt)" onmouseover="hover(evt)" fill="#ddd" stroke="#fff" stroke-width="0.2" id="60" d="m139.5 390.3-1.814-2.67-0.3022-4.383-2.468-2.317-4.282-0.0504-11.28 0.5541-3.123-3.778-1.411 0.0504-2.217-4.685 2.62-4.886 2.72 0.2015 9.672-4.786 3.829-3.375 0.3023-2.62 5.592 0.5038 1.209-0.403 0.8564 1.763 7.254 0.3526 3.073-1.511 2.116-2.317 1.713-0.7052 0.2015-2.217-1.763-1.209 0.0504-1.965 4.886-0.403 2.62 1.411 1.31-1.814-1.36-2.015 0.2519-6.952 0.9571-0.9571 1.763-0.1511 1.209-0.9571-0.9571-1.864-2.519-0.2015-0.3526-4.282 2.972-0.1008 3.426-1.461 4.735-0.2015 1.259 0.9068 0.1008 2.569 3.728 1.259 4.332 4.433 0.5541 1.864 16.02 2.065 2.166 3.426 0.5038 3.023 3.426 2.217 5.441 1.713 9.571-0.3022-0.2015 2.62-2.267 3.426-0.0504 1.008 2.015 2.217-0.3526 3.375-2.821 2.468-2.368 0.2015-2.972 3.123 0.0504 4.987-6.095-1.763-5.592-0.2015-1.965-0.8564-2.116-2.771-2.418 0.1511-4.483 2.368h-4.232l-0.9068-0.7556h-4.937l-3.677 1.965-1.763 4.08-1.108 8.665-1.259 1.36-2.62 1.058-5.138-0.9571-13.75 0.0504-1.36 1.108z"/>
		<path onclick="click(evt)" onmouseout="clearText(evt)" onmouseover="hover(evt)" fill="#ddd" stroke="#fff" stroke-width="0.2" id="52" d="m173.2 332.8-0.2015-1.612 2.72-2.116 5.289-0.7053 5.541-7.405 0.3526-2.368 5.692-0.9571 2.519-2.015 4.685 0.1008 1.31 2.418 4.433-0.1511 1.411 1.209 1.914 0.8564 2.871 3.073h3.123l2.317-3.224 1.965-2.72 4.483 0.1008 1.058 0.9571 0.0504 3.023 2.569 2.317 2.821 1.814 9.319 1.159 0.1008 1.511-2.771 3.526-2.368 7.355-0.3023 3.224 2.62 1.511 0.1008 5.038 1.562 1.108 5.189-0.1008-0.1008 3.577-7.909 1.713-1.411 1.864-1.159 5.894-4.987 0.2015-2.065-2.267-3.073 0.0504 0.4534 3.526-2.267 0.1008-4.786-4.635 2.72-4.08-0.1511-3.577-10.48 0.403-5.289-1.662-2.871-1.965-0.5038-3.123-2.62-3.879-15.52-1.511-0.5541-2.166-4.685-4.332z"/>
		<path onclick="click(evt)" onmouseout="clearText(evt)" onmouseover="hover(evt)" fill="#ddd" stroke="#fff" stroke-width="0.2" id="28" d="m235 341.5 0.2015-2.569 2.217-6.952 3.023-3.677-0.0504-1.31 3.929 0.0504 0.403 1.058 1.763 0.0504 1.36-1.008 1.662 0.4534 1.058 1.511 11.28 0.0504 3.476-3.627 0.9571 0.0504 0.9571 0.8564h3.123l0.5038-1.058h1.209l2.468-2.368 3.325-0.3526 1.411-1.864 7.304-0.1511 0.5038-0.806 1.713-0.2015 0.5541 11.03 1.965 2.871-0.3022 1.36-2.519 2.267-1.562 0.2519-3.023 2.116-0.1511 1.662-4.383 4.232-1.612 0.4534-3.98 5.743 0.7556 2.217 9.219 3.98 2.62 3.829 2.217 0.7053-1.511 1.511-3.174 0.7556-3.728 4.836-0.6549 2.821-0.0504 4.786 3.829 4.232-1.713 1.662h-2.519l-4.383-2.519-8.11-1.108-2.267-1.461-0.3526-2.368-5.189-0.5541-3.728 0.7053-8.614-3.375-0.2015-2.519 1.461-0.9571-0.0504-6.045-3.325-4.383-0.0504-9.722-5.793 0.1008-0.8564-0.6549-0.0504-5.138z"/>
		<path onclick="click(evt)" onmouseout="clearText(evt)" onmouseover="hover(evt)" fill="#ddd" stroke="#fff" stroke-width="0.2" id="61" d="m292 333.1-1.814-2.771-0.3022-11.28 1.814-1.511 1.662 0.2519 0.9571 1.814h3.123l4.987-3.577 3.577 0.403 3.577 4.383 3.375 0.2519 0.8564 1.461h1.411l2.519-1.965 3.224 1.259 2.771 1.461 0.3526 1.259h5.038l0.9571-1.058h2.922l2.418 2.922h4.886l3.577-1.411 2.72-3.526 5.088 5.038 3.073 10.08-0.3526 3.627-1.814 2.922-0.0504 2.569 1.411 0.6549-0.0504 2.922-4.131 0.9571-6.095 0.2519-6.75-2.519-2.166-1.914v-2.368l-3.929-1.058 0.403 4.534-2.871 0.4534-1.209-2.771-3.929-0.1511 0.9068-2.267 0.1511-3.577-2.418 0.1008-1.209 1.864 0.2519 4.181-3.476 4.282-2.569 0.1511-5.441-4.836-5.491-1.562-7.808-5.793-1.864-0.6045-2.418-2.015z"/>
		<path onclick="click(evt)" onmouseout="clearText(evt)" onmouseover="hover(evt)" fill="#ddd" stroke="#fff" stroke-width="0.2" id="53" d="m354.8 349.1v-3.526l-1.36-0.5038-0.0504-1.713 1.864-3.476 0.3526-3.98-3.476-10.13-4.483-4.836 1.511-2.418 3.577-0.9068 6.448 0.0504 7.859-4.685 0.1511-1.612 4.635-3.728 4.584-0.1008 1.058-0.806 2.922-0.403 5.844-6.095 1.259-0.1008 1.763-2.116 2.065 0.2519 1.058 1.31 0.1511 3.627 4.282 4.332 2.67 1.814-2.922 3.426-0.3526 2.015-9.118 10.18 0.0504 3.476-1.914 1.965-0.3022 2.217-1.914 1.259-4.383 0.7052-5.289 2.922-1.008 3.174-3.426 3.829-3.375 0.1008-4.987 4.937-2.62 0.1511-1.511 0.5541z"/>
		<path onclick="click(evt)" onmouseout="clearText(evt)" onmouseover="hover(evt)" fill="#ddd" stroke="#fff" stroke-width="0.2" id="8" d="m400.9 310.1-0.7556-1.461-2.67-1.662-3.879-4.433-0.1511-3.224-1.562-1.814-0.9068-0.403 0.4534-0.806 6.347-2.771 1.662-3.526 3.325-3.677 0.0504-1.511 1.461-0.6549 2.166 1.108 0.3022 0.9571h4.584l3.929 2.468h4.08l1.36-2.015 0.3022-1.713 2.217-1.965 1.612 0.9571 4.03 0.2519 1.108-0.9571 3.677 0.1008 0.1511 0.7556 10.78 1.31 1.662 1.461 3.426-0.1511 3.476 5.692 0.5038 4.584-3.426 3.929-4.08 5.995-4.886 10.13-0.1008 2.519-16.17-1.108-3.023 3.073-1.058 4.332 1.159 5.441-1.36 3.174-3.627 3.426-7.355-1.562-3.728 2.065-2.922 1.864-2.821 4.433-2.418-0.0504-1.159-2.267 0.0504-8.866-7.153-3.174-1.662-1.864v-3.274l9.319-10.38 0.2015-1.864z"/>
		<path onclick="click(evt)" onmouseout="clearText(evt)" onmouseover="hover(evt)" fill="#ddd" stroke="#fff" stroke-width="0.2" id="75" d="m450.2 286.4-0.9068-1.008 0.1511-1.108 2.771-2.368 0.403-4.584 4.886-1.612 6.247 1.259-0.7052 1.058-0.1008 3.929 0.9571 1.108 2.217-0.3022 0.6549-1.511 0.9571 2.065 1.662-0.2015 3.476 4.181 0.2519 1.511 2.368 0.3022 6.7 3.627 0.1008 4.886 0.9068 0.4534 1.108 1.864h3.476l3.073-1.411 1.511 0.3526 3.073 1.36-0.2015 5.038-1.36-1.259-5.088-0.2519 0.403 3.677-1.461 4.433-2.519 2.569-2.368 0.9068-6.247 1.411-5.088 2.217-0.6549 2.821-1.108 11.49-13.6 0.9068-0.1008-3.023-6.398-5.239-2.821-0.1511-4.987-5.944 0.1008-2.67 4.886-9.924 4.383-6.196 3.375-4.03-0.7556-5.289z"/>
		<path onclick="click(evt)" onmouseout="clearText(evt)" onmouseover="hover(evt)" fill="#ddd" stroke="#fff" stroke-width="0.2" id="36" d="m455.9 334.9 14.56-1.108 1.713-14.41 4.937-1.965 7.859-1.914 1.159-0.7556 2.418-2.418 1.411-4.685-0.1008-2.922 3.476 0.0504 3.224 2.065-0.0504 2.972 6.398 1.562 3.879 2.418-0.0504 4.433 1.461 2.821 2.67 3.627 0.6549 2.519-0.8564 3.929-1.713 3.98-1.461 2.267-1.411 2.67-2.569 0.5541 0.5541 3.123 2.67 2.317-0.1008 1.662-0.3023 1.562-1.108 0.8564 0.2015 1.36 1.36 1.814 1.864 2.166 1.763 1.31 0.8564 2.368 1.209 2.418-0.6045 0.7052-1.763 0.2015-1.562 1.763-4.786 0.5541-1.411 1.058-2.871-0.0504-2.922-1.058 0.2519 5.743-5.088-0.2015-0.1008 2.468-10.93 1.36-3.426 2.569-11.64 3.325-6.247 0.2015-4.08-6.247-4.181-2.468-4.282-5.239-6.801-0.8564-3.929-4.635-0.1511-2.62 10.08-1.259 4.635-3.073 4.937-4.786 0.0504-4.483-1.108-4.181 1.209-3.476z"/>
		<path onclick="click(evt)" onmouseout="clearText(evt)" onmouseover="hover(evt)" fill="#ddd" stroke="#fff" stroke-width="0.2" id="29" d="m275.5 353.3-0.6768-1.71 3.811-4.916 1.817-0.5343 4.488-4.916 0.1781-1.46 2.351-1.532 1.924-0.285 2.458-2.387 1.781 1.71 2.28 0.8905 7.587 5.664 5.664 1.496 5.272 5.058 3.455-0.3562 3.705-4.844-0.1069-4.132 0.8193-1.603 1.425 0.1069-0.4987 2.921-0.9261 2.921 4.738 0.2137 0.9262 2.885 3.811-0.9261-0.0712-3.99 2.208 0.6768 0.1069 2.28 2.28 1.817-0.0356 3.242-2.28 0.2493-1.282-0.7837-1.354 1.033-2.85 1.247-4.025 5.984 0.0356 6.91 2.137 3.135-5.592 5.201-4.274 3.063 0.285 6.162 4.88 3.17 1.817 0.1069-0.1781 2.422-4.666 1.425-2.137 2.458-2.6 0.0712-0.7837-1.389-3.491-0.1781-5.094 0.3918-5.165-3.455-6.982-2.137-8.763-4.773 0.5343-0.7836-4.168-4.559 0.1425-4.381 0.5699-2.672 3.669-4.275 3.135-0.748 2.173-2.493-2.957-0.9974-2.885-4.203z"/>
		<path onclick="click(evt)" onmouseout="clearText(evt)" onmouseover="hover(evt)" fill="#ddd" stroke="#fff" stroke-width="0.2" id="69" d="m337 348.7 6.554 2.493 6.732-0.3206 4.31-1.104 1.71 1.247 1.745-0.6412 2.03-0.0356-0.3206 1.639-1.603 2.814-0.1069 2.066 2.102 1.069 0.1425 2.743-3.242 0.1425 0.3206 3.099 1.674 2.957 4.595 0.3562 1.425 1.674 1.389 0.0712 1.175-1.603 1.532-0.2494 0.1425 2.6-1.745 1.603-0.1425 1.603-4.025 3.74-1.567-0.1069-3.883 4.844-1.532-0.0356-0.1425 0.8549-14.07-2.137-13.93 2.28-2.672 2.992-0.6412 1.389-2.778-0.3918-4.524-2.885-0.1425-5.45 4.488-3.206 5.486-5.486-2.387-3.313 0.1069-6.625 3.883-5.521 3.633-1.71 1.425 0.6768 2.6-0.4631z"/>
		<path onclick="click(evt)" onmouseout="clearText(evt)" onmouseover="hover(evt)" fill="#ddd" stroke="#fff" stroke-width="0.2" id="25" d="m360.9 350.2 4.951-4.88 3.74-0.1425 3.526-4.274 0.7124-2.814 5.129-2.885 4.524-0.8193 2.28-1.603 0.2137-2.28 1.496-1.389 1.852 2.066 6.661 2.743-0.1781 9.155 1.496 2.387 3.705 0.0712 2.672-4.951 6.056-3.348 7.73 1.496 3.954-3.99 1.496-3.562-1.211-5.129 1.033-4.381 2.458-2.6 16.1 1.211 5.094 6.269 3.135 0.1069 5.949 5.023-0.285 4.88-1.639 3.811 1.175 4.132-0.1069 4.274-4.524 4.203-4.132 2.921-11.11 1.496 0.3562 3.918 4.239 4.844 7.124 1.069 3.776 4.631 4.31 2.6 3.776 5.664-12.72 6.804 0.3562 2.529 8.264 7.48 3.99 2.351 0.2137 5.45-2.387 2.208-4.132 3.811-3.847 1.389-2.387 4.666-1.959 6.768-1.318 0.8905-0.5343 1.71-2.85 2.422-8.05 1.639-7.053 3.42-7.017-0.1069-7.694-11.04-5.201-1.282-9.012 1.282-0.4274-1.817h-3.562l-2.387-3.811-2.351-1.033-17.17 3.277-3.562-1.318 0.1425-4.31 2.493-1.211h5.023l-0.1781-1.817-4.274-1.247-1.639-5.45-3.206-1.781-2.85-5.023-0.1781-5.557-2.565-1.817-5.806 0.0356-4.702-2.957 0.1069-2.28 2.102-2.173 6.768 0.8549 0.2494-1.175 1.496 0.1781 3.598-4.738 1.959 0.1425 4.132-4.417 0.0712-1.532 1.817-1.852-0.3206-3.384-2.85 0.3918-1.14 1.532-1.745-1.852-4.524-0.2493-1.639-2.422-0.285-2.244 3.348-0.1781-0.3562-4.096-1.959-0.6768 0.1425-1.639 1.71-3.099z"/>
		<path onclick="click(evt)" onmouseout="clearText(evt)" onmouseover="hover(evt)" fill="#ddd" stroke="#fff" stroke-width="0.2" id="24" d="m255.7 440.4 0.9068-2.67 0.0504-8.11-1.108-1.965 1.058-1.612 0.0504-1.461 1.814-0.4534-0.1008-2.519-4.08-2.368-0.7556-4.886 2.166-1.864-2.418-3.627v-1.411l4.332-8.06 2.67-2.468-0.1008-2.72-4.232-2.368-0.1511-2.771 1.713-1.814 2.922 0.1511 2.368 2.166 3.023-0.403 1.209-1.562 6.549-0.3022 1.612-2.72-0.1008-3.174 3.98 2.418 3.023-0.3023 1.159-1.259 9.269 5.189 6.901 1.914 5.441 3.577 5.239-0.3022h2.972l0.9571 1.562 3.174-0.1511 2.267-2.62 4.836-1.612 0.1008-2.418 1.159-0.0504 0.7053-1.713 2.418-2.67 13.6-2.217 7.355 1.159-2.569 2.317v2.72l5.39 3.375 5.743-0.0504 2.065 1.461 0.1511 5.441 2.972 5.289 3.325 1.763 1.461 4.886 0.3022 0.6045 4.08 1.108-0.0504 0.806h-4.786l-2.468 1.108-5.239-0.0504-0.9571 0.7556-0.7556-0.6549-1.108-0.3526-3.375-3.526-11.38-0.1511-4.584 2.67-4.03 0.1008-6.196-2.72-2.62 0.4534-1.108 1.209 0.2015 1.612 1.108 1.008-0.403 1.159h-2.519l-4.282 2.166-1.259 2.771h-1.763l-1.31-1.461-0.2015-3.023-2.015-0.0504-3.577 2.62-6.045 1.058-3.224-1.108-1.864 2.166-5.894 1.259-3.224 3.174-0.5038 1.511-1.159 0.806-1.713-0.1511-1.058 2.771-2.871-1.763-3.375 2.015-0.2519 2.267 1.108 1.562h4.131l-0.1511 2.418-6.095 2.569-1.159 1.511-2.267-0.9068-2.166-0.3022-1.108 1.209-1.612-1.562-0.4534-2.468-0.403-1.008-2.67-0.9571-2.166-1.965-0.9068 1.209 0.7556 1.814 1.36 1.058 1.612 0.403 1.461 0.3526 0.6549 1.36-0.2519 1.36 0.8564 0.3022 0.7052 0.403 0.806 0.403 1.713-0.3022 1.058-0.6045 1.763 0.9068-0.1511 7.053-2.166-1.612-1.562-3.929-3.023-0.7556-5.844-0.2015-1.713 1.511-1.814-0.3526z"/>
		<path onclick="click(evt)" onmouseout="clearText(evt)" onmouseover="hover(evt)" fill="#ddd" stroke="#fff" stroke-width="0.2" id="44" d="m270.2 446.7-2.015-4.383-2.317-1.108-5.289 0.1008-1.461 1.562-2.519-0.3526-1.763-1.662-3.174 0.1511-3.627 3.325-18.84 1.209-2.519 6.247-2.821 0.1008-2.771-2.922-7.053-0.1511-0.9571 1.411 0.5541 1.662 1.461 0.9068-0.1511 1.814-1.209 0.806 0.1511 3.526 3.073 3.023-0.403 3.274-1.662 1.108-4.735 3.476-3.929 7.103-0.7556 0.5038v2.015l-3.375 2.922-0.2015 1.713 7.304 1.511 6.75 4.735 4.483 0.403 1.965 1.713 4.433 7.506-0.2015 4.786-3.778 4.08-2.116 1.612 0.1511 5.894 0.7053 0.806 4.685 1.965 8.413 0.1511 6.75-2.217 1.612-0.5038 2.166-1.562 1.008-0.2015 0.7052-1.612-3.123-4.131-0.2015-2.569 4.232-1.058 2.67-0.9068 1.965-2.116 1.511-0.403 1.562-1.814 4.03 0.0504 11.74 6.247 3.224 0.7052 1.36 1.36 3.879 2.72 2.468 0.2519 7.758-3.879 4.635-6.65-0.3023-2.771 2.519-3.426-0.1511-2.62-2.821-2.771-2.166-0.0504-3.526 1.763-1.209 0.1008-6.045-6.901-1.562 0.2519-3.375 2.72h-1.36l-14-4.181-3.728-3.98-0.1008-6.045 4.534-4.433 0.2015-1.814 2.267-2.821 2.418-0.1008 0.403 1.008 5.793 0.0504-2.116-6.448-1.612-1.411 0.1511-1.159-1.965-1.259 0.1511-3.123 0.9571-2.418 2.468-0.1008z"/>
		<path onclick="click(evt)" onmouseout="clearText(evt)" onmouseover="hover(evt)" fill="#ddd" stroke="#fff" stroke-width="0.2" id="23" d="m273 464.8-2.065-6.599 0.5541-1.008 1.411 0.1511v-0.8564l-1.31-1.662-1.209-1.259-0.0504-3.577 1.914-1.058 0.9571 1.461 1.159-0.2519 1.058 1.36-1.814 1.814-0.2015 1.511 0.6549 0.9068 0.6045 0.3022-0.1008 1.108 0.9068 0.403-0.2519 0.6045-0.9068 0.3526-0.3022 0.4534 0.1511 1.008 1.209 0.7556 0.2015 1.411 2.519 0.2519 0.0504-3.073 1.864 1.864 1.914-0.2015-0.1511-1.461 0.7052-0.7053 1.864-0.7556 1.965 0.4534 1.058 0.806h1.461l1.461 0.2015 0.6045 1.814 0.3526 0.806h1.31l0.2015-1.562 0.0504-2.569 1.662 0.3526 1.511 1.259 1.209 1.008-0.0504 0.5038 1.159 0.3022 0.3022-1.965 0.7556-0.1511 0.7053 0.806 1.612 0.403 1.058 1.814 3.224-0.0504 0.6549 1.763h1.864l0.2519-0.6549 1.36-0.1008 0.7053 1.461v3.375l-1.36 2.116-2.116 0.0504-2.62 2.418 0.3022 1.814 1.713 0.7052 1.511-0.7556 2.771-0.2015 1.511-0.2015 1.36-1.562 2.771-0.403 1.662-0.8564 2.519-0.7556 2.015 0.3022 1.259 0.3022 0.7053 1.662 0.403 1.209 2.368-0.403 0.4534-0.7556 1.511-0.0504 1.209-0.4534-0.1008-1.864 0.5541-1.008 0.0504-1.914-0.8564-0.5038-1.058 0.2015-0.0504 1.562-1.31 0.403-1.461 0.2519-0.8564 0.7053-1.411-1.461-0.806-0.8564-1.159-0.1008-0.7052 0.1511-0.9068 0.7556-0.4534-0.6549-0.9068-0.2519-1.662-0.1511 0.3526 1.259-0.7053 0.2015-1.058-0.5541-0.1008-1.461-1.259-0.3526-1.763-0.0504-0.6045-2.771 1.058-1.662 2.519-2.519 2.368-0.6549 3.98-1.159 3.375-0.2519 2.771-0.1008 0.7556-2.468 2.67-3.073 0.1008-4.735-2.67-3.778 0.4534-1.31 2.015-1.662 1.814 0.1008 1.662 2.065 2.972-0.5541 1.914-1.562 5.239-4.635 1.31-1.209h2.871l1.864 3.174 0.0504 1.209-1.914 2.67 0.0504 5.592-0.9571 1.008v2.166l1.914 1.108-0.1511 1.562-0.9571 0.7556 0.1008 1.159 4.282 2.922 1.662 0.0504-0.3022 2.871-2.166 2.015-1.914 0.2015-2.418 1.814 0.0504 2.267-1.411 0.5541-1.763 1.461-0.5541 1.662 2.166 2.166 3.224 1.864 0.2519 3.274 1.914 1.914-16.17 1.411-1.612-1.562-1.209 0.3526-2.015 1.612-0.0504 4.937-7.556 2.116-7.556 4.383-3.375-0.1511-8.765-3.073-3.577 2.317-2.72 0.1511-3.627-4.181-3.174 0.0504-3.829 1.36-6.095-6.498-2.821 0.403-2.771 2.468-1.562-0.403-13.25-3.728-3.174-3.224-0.1008-5.541 4.433-4.433 0.3023-2.116 1.814-2.166h1.562l0.6549 1.31 6.75-0.2519z"/>
		<path onclick="click(evt)" onmouseout="clearText(evt)" onmouseover="hover(evt)" fill="#ddd" stroke="#fff" stroke-width="0.2" id="62" d="m276.3 438.3-1.209 1.209-0.2015 4.584 1.058 0.6549-0.1008 1.159 1.008 0.7556 1.159 0.806-0.0504 1.259 0.1511 1.814 0.9571 0.2015h1.612l-0.5541-1.159 0.2015-0.7556 0.8564 0.1511 0.806-0.7052h1.159l0.403 0.3526-0.9571 0.7556-0.2519 1.511 0.0504 3.274 1.209 0.1008 0.3023-1.008 0.6549-0.6549-0.1511-1.914 4.786 0.4534-0.0504 2.67 2.771 0.3022 0.3526 0.5541 6.851-0.1008 0.3526-0.7052 0.7556-0.3023 0.403 0.5541-0.2519 0.9571 1.814 2.065 0.1008 0.9068 0.4534 0.3526 1.612 0.9068 2.72 0.806 1.008 0.8564 1.864 0.8564 1.461-0.2015 1.008-0.9571 1.058-0.9068h0.806l0.4534-1.209 0.806-0.7556 0.1511-1.259h0.5541l0.2015-1.209-0.0504-2.217-2.569-1.31-0.2015-1.259 0.5541-0.403 1.511 0.2519 1.259 0.0504 0.7556 1.058 0.1511 1.008-0.0504 2.065 0.6549 1.713 1.058 0.403 2.519 0.0504 1.461-0.3022 0.403-0.9068 1.713 0.3526 1.713-0.1511 0.6045-1.008 3.023-3.375 0.0504-4.131-2.418-3.627 0.7053-2.62 2.116-1.31 2.821 0.0504 0.0504-2.418-0.6045-5.34 1.965-1.763-0.0504-2.217 1.965-0.9571 1.058-0.1511 0.1511 1.058 2.317 0.2519 2.418-2.972 2.418-0.403 2.771-1.31-0.0504-2.015-1.511-1.511 1.31-1.713 2.116-0.9571 1.763-1.713 2.418-1.411 1.511-0.7053v-0.9571l-2.771-3.023-10.83-0.1008-4.383 2.62-4.735 0.1511-5.844-2.62-2.468 0.403-0.6549 0.806 0.2015 1.108 1.259 1.008-0.6549 1.612-0.3526 0.3526-2.368 0.0504-4.08 1.965-1.31 2.771-2.67 0.1008-1.411-1.814-0.3022-2.569-1.411-0.1511-3.123 2.468-6.498 1.209-3.023-0.9571-1.965 2.217-5.793 1.008-2.922 2.922-0.403 1.511-1.411 1.008-1.814 0.0504-1.108 2.871-3.073-1.914-2.871 1.763-0.1008 1.612 0.7556 1.209 4.282-0.0504 0.1008 3.627z"/>
		<path onclick="click(evt)" onmouseout="clearText(evt)" onmouseover="hover(evt)" fill="#ddd" stroke="#fff" stroke-width="0.2" id="12" d="m335 440.4-0.1008-3.073-0.6549-5.038 2.267-1.864-0.2015-1.914 1.562-0.806 0.5541 1.108 3.325 0.2015 2.065-3.174 3.123-0.4534 2.821-1.562-0.4534-2.62-1.36-1.411 0.9068-1.108 2.418-1.008 1.763-1.763 4.08-2.519 0.7053 0.1008 1.159 0.7053 1.159-0.806h4.937l-0.1008 4.937 4.282 1.662 17.33-3.577 1.814 0.806 2.317 4.03 3.476 0.0504 0.2519 1.36-3.929 1.108-0.6549 1.562 0.8564 1.914 1.108 2.368 1.259 0.5038-0.1511 1.864 3.174 4.332 5.441 2.569 0.806 2.015-0.8564 1.31-4.987 2.065-1.159 2.771-1.008 5.995-0.8564 2.771 0.5038 4.332 2.015 1.31-1.008 1.058-2.217-0.1511-1.662 2.368-1.562 0.4534-2.015 2.267-1.713 2.922-4.332-0.0504-5.592 2.972-2.821 0.0504-9.672-2.217-2.468 0.0504 0.1008 1.662-2.569 2.519-1.058-0.2015-0.3022 4.08-1.259 1.411-2.267-0.3526-2.267-2.317-0.3526-3.929-3.526-1.511-1.662-1.763 0.403-1.31 1.713-1.209 1.763-0.5038-0.1511-2.569 1.713-1.209 2.569-0.2015 2.317-2.519 0.2519-3.929-2.166 0.0504-3.778-2.519-0.1008-0.7053 1.159-0.8564-0.0504-2.468-2.015-0.8564-0.0504-1.31 1.209-1.209-0.1511-5.541 2.015-2.821-0.2519-1.713-2.267-3.577-3.426 0.2519-8.262 7.355-2.62 0.5541z"/>
		<path onclick="click(evt)" onmouseout="clearText(evt)" onmouseover="hover(evt)" fill="#ddd" stroke="#fff" stroke-width="0.2" id="49" d="m390.6 425.2 0.3526-0.9068 3.98-1.259 9.168-1.31 4.836 1.31 7.909 11.13h7.758l6.75-3.375 8.362-1.612 2.972-2.922 0.5038-1.511 1.36-1.058 1.914-6.901 2.166-4.232 5.34-1.108 1.008 1.008 2.217 0.1511 1.511 1.864 0.3526 2.821 1.209 1.763 5.844 5.844 0.9068 2.116 0.5541 6.196 1.864 2.166-0.1008 4.584 2.317 1.814v1.814l-3.728 0.403-4.332 2.116-2.116-1.058-6.549-0.0504-4.232 1.209-0.9571 1.562-3.426 0.3526-1.965 2.771 0.0504 2.116-5.844 0.2015-2.368 2.116-0.1511 1.562 2.922 1.562-0.5541 1.36-0.806 1.159-1.159 5.692-2.217 0.9571-21.06 1.965-1.058 3.778-1.763 1.209-4.232 1.36-0.4534-3.526-3.073-7.657-2.72-2.972-3.274 0.0504-0.1511-0.8564-1.814-1.159-0.6549-3.829 1.108-2.972 0.9068-6.146 1.209-2.217 4.635-1.965 1.259-1.814-1.108-2.62-5.541-2.62-3.023-4.03 0.3023-2.166-1.562-0.3526z"/>
		<path onclick="click(evt)" onmouseout="clearText(evt)" onmouseover="hover(evt)" fill="#ddd" stroke="#fff" stroke-width="0.2" id="76" d="m492.6 372.6 0.2015-1.511 4.836 0.1008-0.1008-5.34 1.864 0.9571 3.728-0.0504 1.058-1.108 4.685-0.7052 1.259-0.5038 2.418 2.972h3.879l4.987 2.62 6.095 0.5038 2.67-0.6549 4.735-0.6549 2.922-0.9068 3.274-0.7052 2.418 0.4534 6.196 2.418 1.965 2.166 3.023 2.065 0.1511 1.411 1.008 1.209 1.159 0.3526 0.403 1.763 1.411 0.8564 1.763 0.5038 2.468 1.713 4.383 5.138-0.3023 0.7053-0.9571 0.1008-1.058-1.159-1.814-2.116-1.914 0.2519-1.411-1.159 0.0504-1.209-2.267-0.2015-1.058 0.7053-0.3526 2.116-6.146-0.2519-4.08 2.418-6.398 0.2519-0.9571 1.159-0.9068-0.9068-12.09-0.2015-1.713-1.36-11.84-1.159-2.217-1.511-2.72-0.1511-2.418 2.519-4.332 0.4534 0.8564-8.967-1.511-1.259-4.483-1.763-2.267-0.403z"/>
		<path onclick="click(evt)" onmouseout="clearText(evt)" onmouseover="hover(evt)" fill="#ddd" stroke="#fff" stroke-width="0.2" id="4" d="m491.8 373.3 0.7556 2.015 3.224 0.7556 3.778 1.209 1.209 1.159-0.9571 9.168 5.491-0.5541 2.317-2.217h2.267l2.267 1.612 11.89 1.108 1.814 1.411 11.89 0.1511 1.108 1.209 1.461-1.36 6.297-0.3022 4.282-2.317 3.023-0.1511-0.1511 1.411-1.209 0.403 0.1511 2.569 1.008 0.7556-0.2519 0.9068-0.9068 0.4534-0.0504 1.814-1.209 1.31-0.4534 1.864 0.0504 2.166 0.9571 0.2015-0.0504 0.7053-0.806 0.7052-0.1008 1.159-0.2015 2.62-1.159 1.31-1.461 0.7556-1.31 0.9068-3.073-0.1511-1.814-1.259-0.7053 0.1511-1.108 0.9068-1.965 0.2015-2.72 0.1008h-1.411l-1.461 2.368-0.806 1.209-3.879-0.1008-3.123-1.36-1.008 0.6549-2.62 5.592-0.3023 3.023-1.864 1.511-1.914 0.1511-0.5038-1.31-2.468-0.6549-1.461-2.317-2.519-0.1511-2.015-3.123-1.662 0.1008-1.36-1.31-5.038-0.3526-2.418 3.023-7.355 1.914-0.8564 2.368 3.526 1.612v3.123l-1.662 0.9571-0.1008 3.023-5.642 5.088-0.1008 1.511-3.627 2.771-0.0504 3.526-1.965 2.267-7.153 0.6549-0.2015-2.217-2.569-2.116 0.4534-4.735-2.015-2.065-0.7052-6.247-1.008-2.317-6.801-7.254-0.403-3.224-1.965-2.166h-1.965l-1.461-1.461 5.39-5.138-0.2519-6.347-4.483-2.418-7.959-7.304-0.2015-1.662 12.24-6.448 7.103-0.0504 11.99-3.476 3.426-2.62z"/>
		<path onclick="click(evt)" onmouseout="clearText(evt)" onmouseover="hover(evt)" fill="#ddd" stroke="#fff" stroke-width="0.2" id="13" d="m468.5 444.7 11.49-0.7053 2.267-2.821 0.2519-3.526 2.771 1.864 5.743 1.562-3.98 1.159 0.2015 1.965 1.511 3.224 3.829-0.0504-2.166 2.418-3.174 1.36h-6.599l-1.562 0.9068-3.224 0.1008-2.922-0.9068-1.36-0.0504-4.685 1.31-10.18 4.987 0.7556 4.232 1.209 1.008 0.0504 1.662-2.72 0.4534-2.166 5.189-2.267 0.7053-0.2519 2.317 3.325 0.3526 3.023 0.403 0.7053-1.31h1.108l0.806 1.814 2.065 0.1511 0.5541-0.806 1.36-0.5541 0.7053-0.6549 5.642 0.1511-0.1008 2.72 4.383 0.0504 2.519 12.19-2.922 1.159-0.5038 2.62 1.763 1.411 2.317 0.3526 0.1511 2.015-1.36 3.627 1.562 4.181-0.2519 4.181-4.332 3.274-2.418-2.166-1.562-0.5541-2.418-3.224-11.28-6.196-5.541-5.541-2.317-0.7053-6.146 1.914-2.771 2.569-1.411 0.2015-5.189-2.116-2.62-1.713-4.03-0.3526-4.181-3.728-2.317-14.91-2.166-1.864-3.526-0.4534-0.2015-1.209 21.06-1.965 2.468-1.411 1.008-5.743 1.612-3.123-3.224-1.562 0.1511-1.108 1.864-1.511 6.448-0.4534-0.1511-2.368 1.612-2.317 3.98-0.3526 0.6045-1.763 3.728-1.058 6.599 0.1511 2.569 1.612z"/>
		<path onclick="click(evt)" onmouseout="clearText(evt)" onmouseover="hover(evt)" fill="#ddd" stroke="#fff" stroke-width="0.2" id="65" d="m494.6 440.6-9.017-1.713-2.116-1.763 2.922-2.317 0.1511-1.662 6.045-5.289-0.2519-2.368 1.511-1.108-0.0504-4.232-3.526-1.209 0.6045-1.209 7.254-2.015 2.217-2.871 4.383 0.3526 1.008 1.511 1.965-0.2519 2.015 3.274 2.368-0.1008 1.461 2.317 2.317 0.5541 0.5038 1.562 3.325-0.3526 1.713-1.864 0.6045-3.375 2.468-5.239 2.821 1.31 7.556 0.1008 0.9571 6.549 2.67 3.375 2.468 0.2015 0.9068 2.116 1.31 1.159-0.2015 6.247-1.612 0.403-0.5541 1.914 3.627 6.347 2.418 2.166 2.116 0.6045-0.1511 4.836-0.5038 2.267-0.4534 3.023 1.763 1.914 1.965 3.174-1.058 3.677 1.108 1.209 0.1511 6.901 1.713 1.411 3.325 0.6549 2.217-1.159 1.058 1.108 0.7556 1.864-0.5541 1.763-1.209 1.411-1.763 0.6045-0.0504 7.859-2.217 1.108-4.282 9.874 0.5038 5.944 1.461 1.008 2.771 0.0504 3.426 0.3022 1.814 2.771 1.411 1.36-0.7053 0.6045-2.922 3.073-7.859 1.461-3.123 1.008-0.4534-6.75-1.965-1.108-3.577 3.526-8.665 3.325-10.43 0.6549-7.153 3.224-4.937 1.511-5.692 0.1008-6.498-3.829-4.836-0.2519-4.987 1.31-3.929-9.471-5.441-0.403 0.2519-3.778-1.814-3.879 1.763-4.08-0.2015-2.569-2.771-0.5541-1.36-0.9068 0.403-1.562 3.174-1.209-2.922-13.2 2.468-2.166 1.965-0.0504 1.965 1.562 0.6045 2.922 0.9068 3.224 2.116 1.36 2.821 0.3526 5.088 0.0504 1.662-1.31 0.3022-1.511-1.209-0.7052 1.31-1.159 2.116-1.864 1.763-1.612 2.166-0.3022 1.814-0.0504-0.1511-2.267-0.2519-7.103-1.058-0.403-2.972-0.1511-1.763-0.7556-0.9068-1.864-1.511-1.159 0.3022-1.612 0.5038-1.108 1.058-0.9068 0.5541-2.267 0.0504-1.259 1.31-0.7053 1.411 0.2015 0.2519-4.181 1.159-0.9571 1.461 0.806 1.31 0.3526 1.511-1.562 0.5038-0.806 1.461-0.806 1.411 0.0504 2.317-0.6045 0.7052-2.317 2.116 0.2015 1.713-1.562 1.411-0.6549-1.259-1.864-2.065-0.6045-2.569-1.008-5.038-0.806-2.62 0.0504-3.879 1.612-3.426 2.62z"/>
		<path onclick="click(evt)" onmouseout="clearText(evt)" onmouseover="hover(evt)" fill="#ddd" stroke="#fff" stroke-width="0.2" id="30" d="m545.1 507.8 1.411 0.7556 0.5541 7.254 3.929-1.511 8.211-1.562 2.519-2.922 5.743-0.6549 2.569 1.965 1.209 1.108-0.1008 1.763-1.562 1.36 0.0504 3.023 1.511 1.008 0.1008 4.886-1.058 1.209-0.0504 1.914 0.9571 1.159 1.36 1.763 1.008-0.0504 0.6549 1.511 0.5038 1.965 1.36-0.1008 2.166 0.4534 2.166 2.468 1.612-0.0504 0.5541 1.108 1.058 1.36-0.3023 1.108-1.209 0.1511-0.7053 4.433-1.058 1.159-3.023-0.6045-0.6549-0.6045-2.519 0.3526-1.108 1.259-2.015 1.662 0.2519 1.763-1.662 0.9068-2.166 1.864-2.317 1.864-1.209 0.1008-2.67 2.972-0.1511 0.9571-1.209 1.31-1.511 0.1008-1.259-1.259-0.7556-3.073-1.612-1.612 0.1511-1.864 0.6045-0.806 0.3526-1.763 2.821-0.3022-0.0504-3.325-1.763-3.375-4.735-2.418-3.577-1.108-5.39 0.806-2.317 1.914-0.9571 3.174-2.015 1.662-2.972 0.403-2.116-0.1008h-3.274-3.627l-1.36 0.806-1.058-0.3526-1.31-1.562-3.023 0.0504-0.806 1.008-1.108-0.806-0.9068-1.562-2.116 0.1511-4.08-4.282-2.217-4.534 2.62-2.871-0.3022-1.662-0.806-0.2015-0.0504-3.224 4.836-4.483 1.511 0.1008-0.2519-5.038 7.456-3.174 10.33-0.5038 8.513-3.426z"/>
		<path onclick="click(evt)" onmouseout="clearText(evt)" onmouseover="hover(evt)" fill="#ddd" stroke="#fff" stroke-width="0.2" id="56" d="m484 507.8 3.728 8.916-1.662 2.166-1.36 5.34h-2.418l-6.448-1.662-3.476-3.174-5.995-0.2519-5.038 3.123-6.901 8.161-17.58-0.2519-4.08-3.728 0.1008-2.62-4.08-1.511-1.461 1.511-1.914 0.1008-0.8564-4.534 0.8564-0.7052-0.1511-3.274-1.511-1.159-11.28-2.217-2.569-2.065-0.3022-2.67 3.627-2.821 0.2015-2.065 4.282-0.0504 2.922-4.232 0.2015-4.635 2.317-2.519 2.871 2.368 3.929 0.2519 2.519 1.713 5.39 2.116 2.116-0.3023 2.468-2.67 6.095-1.763 1.713 0.9068 5.39 5.39 11.33 5.944 2.418 3.174 1.914 0.9571 2.317 2.217 5.441-3.778z"/>
		<path onclick="click(evt)" onmouseout="clearText(evt)" onmouseover="hover(evt)" fill="#ddd" stroke="#fff" stroke-width="0.2" id="73" d="m509.4 541.5-2.821-6.045 2.67-2.922 0.0504-0.7556-1.008-0.9068 0.3022-3.476 5.038-5.038 1.36 0.1008-0.1511-3.728-3.98 1.31-6.901 0.0504-6.095-3.929-4.332-0.3022-5.289 1.411-1.411 1.914-1.209 5.793-3.577-0.0504-7.204-1.914-3.224-3.023-4.886 0.2015-4.937 2.569-6.901 8.564-18.59-0.403-1.108-1.36-0.1008 3.829-1.914 0.806 0.1511 5.441-3.123 1.662-8.211 1.411-0.806 12.44 1.31 0.6549 3.577-1.159 0.1511 4.08-0.806 2.116 5.743 0.2519 2.62-1.914 3.577-0.2015 2.267-0.9571 5.894-2.871 2.821-2.972 1.411-2.519 2.065-1.058 1.814 0.2015 0.5038 0.7053 1.814 0.5038 1.965-0.2015 1.36 1.259 0.5038 3.426-0.1008 2.569 1.461 1.814 1.864-0.3526 2.519-1.008 2.116-0.6549 2.317-0.2519 1.511 0.1511 0.9068-1.562v-1.662l0.7556-1.461 1.511-1.612 0.2015-2.418 1.562-0.3022 0.7053-2.368 3.728-4.08h1.209l3.274 1.36 0.9571 1.058 2.922 1.008 2.519-1.008 1.008-1.864 3.778-1.763h3.174l2.267 0.8564 2.771 1.159 2.519 1.209 1.864-0.3526z"/>
		<path onclick="click(evt)" onmouseout="clearText(evt)" onmouseover="hover(evt)" fill="#ddd" stroke="#fff" stroke-width="0.2" id="47" d="m432.2 527 2.368 2.166-0.1008 3.627-2.217 1.31 0.3526 5.189-2.519 1.36-8.866 1.612-0.806 13.45 2.065 0.9571 2.922-1.108v3.073l-1.008 3.123-2.166 0.4534-4.181 2.267-13.65 0.1511-0.9571 0.806-1.562-0.8564-3.627-0.1511-9.319-1.965-6.498 0.8564-8.463 2.468-3.526 2.519-2.418 1.713-3.174 0.2015-2.67 1.562-1.108 2.166-5.692 3.829-2.368-0.1008-4.836-4.332-0.5541-3.224 1.612-1.864-8.715-12.85-1.965-7.859-4.332-6.347 3.829-0.1511 1.159 0.9068 4.584-0.1511 1.159-1.965 6.297 0.1008 2.065 1.159 3.023-0.3526 3.929-2.771 3.98-4.584h1.662l0.6549 1.008 4.685-0.3526 1.864-1.209 0.4534-6.196 1.511-0.9571 2.972 2.368 3.879 1.662 3.829 0.3526 3.778-2.166 2.368-2.166 2.569 4.282 1.713 2.418 0.403 4.131 2.015 2.166 11.79-0.2015h4.383l3.325-2.972 2.368-2.418 4.483-2.62 4.332-3.627z"/>
		<path onclick="click(evt)" onmouseout="clearText(evt)" onmouseover="hover(evt)" fill="#ddd" stroke="#fff" stroke-width="0.2" id="72" d="m392.6 525.1 4.232 7.053 0.3526 4.181 1.511 1.662 15.77-0.1511 5.592-5.34 4.735-2.871 3.929-3.476 3.476 0.1511-0.1008-1.914-3.123-1.108-1.159 1.259-2.922 0.1008-1.259-5.743 0.9571-0.9571-0.1008-2.267-1.259-1.058-11.54-2.065-2.771-2.771-0.0504-3.274 3.476-2.317 0.403-2.67 4.534 0.1511 2.72-3.929v-4.786l2.418-2.468-1.36-1.562-2.217-14.71-1.864-1.763-3.829-0.403-0.7052 2.116-1.965 1.159-4.433 1.411-0.5541 1.159-2.972 0.0504-0.9068 2.67-1.411 1.763-1.763 2.217-0.403 2.267-0.5541 0.8564 0.3526 4.131 3.426 4.786-0.3023 3.174-2.317 2.771-1.108 4.483-2.871 4.232-0.7053 2.72-4.181 3.426-0.0504 2.62 1.914 2.166 2.67-0.1008z"/>
		<path onclick="click(evt)" onmouseout="clearText(evt)" onmouseover="hover(evt)" fill="#ddd" stroke="#fff" stroke-width="0.2" id="21" d="m334.5 540.4-2.217-2.569-0.5541-8.312 1.058-0.7052-0.0504-2.821-0.7556-1.008-0.0504-4.282-2.166-1.058-1.31 0.2519-5.491 3.879-1.562-0.3023-8.06-7.002-4.332-2.166-4.685-1.36 0.806-2.317 0.806-0.8564 0.5541-1.259 0.9571-0.806-0.8564-0.6045-3.023 0.403-0.1511 0.8564-0.6045-0.9571-1.612-1.763 0.3526-1.008 1.209-1.965 0.3526-1.965-1.209-1.965-2.267-0.6549-1.763 1.159-2.519 0.5541-0.2519-1.31 2.468-3.526v-1.662l3.476-0.1511 3.829-2.166 8.312 3.174 3.627-0.1008 7.859-4.433 7.456-2.217 0.3526-4.937 2.217-1.763 1.814 1.562 16.57-1.31 2.922 0.403 1.864-1.914 0.1511-3.677 0.9571 0.3022 2.72-3.023-0.2015-1.209 1.965-0.0504 9.471 2.166 3.728-0.0504 5.088-2.972 4.685 0.1008 1.864-3.426 1.763-1.864 1.914-0.7556 1.209-2.065 2.468 0.2015 0.5541-0.7556 3.375 0.1511 2.519 2.67 2.871 7.355 0.6045 3.577-0.3526 1.108-3.375 0.2519-0.9571 3.023-3.224 4.131-0.2519 1.965-0.7053 1.914 0.8564 4.383 3.224 4.282-0.403 2.317-2.217 2.972-1.108 4.232-3.073 4.786-0.403 2.267-4.735 3.627 0.2519 3.073 2.317 2.72 1.814-0.3022-1.914 2.72-5.541 3.728-3.677-0.2519-3.829-1.612-3.274-2.62-2.116 1.31-0.3526 6.297-1.511 1.058-3.879 0.2015-1.008-0.9571h-2.317l-3.929 4.735-3.778 2.871-2.67 0.0504-2.116-1.259-6.901-0.0504-1.008 2.267h-3.879l-1.31-1.058z"/>
		<path onclick="click(evt)" onmouseout="clearText(evt)" onmouseover="hover(evt)" fill="#ddd" stroke="#fff" stroke-width="0.2" id="2" d="m240.6 548.5-0.2015-1.108-3.778-2.116-6.7 0.5541-2.67-2.871-1.814 0.2015-1.662 1.411-2.62 0.1008-2.922-4.332-3.426-0.5038-3.879-2.065 0.2519-1.662 2.821-3.829 0.3022-4.181 2.166-2.317 2.317-0.4534 2.72-2.972 0.1511-4.534 4.584 2.317 8.967-0.0504 8.564-3.023 1.763-1.461 1.209-0.4534 0.8564-2.166-2.972-4.282-0.2519-1.814 6.65-2.116 2.065-1.814 1.763-0.6549 1.209-1.411 3.577-0.1008 11.49 6.398 2.871 0.7053 5.239 4.03 2.821 0.3526 8.463-4.131 5.692-7.707 1.814-0.6045 1.864-0.7556 1.713 0.806 0.806 1.259-0.6045 1.461-1.31 2.67-2.217 2.368 0.5038 0.9068-0.1008 1.31-1.562 0.403-2.065-0.2015-1.36 0.5541-1.209 0.7053-1.914-0.1511-1.562 0.0504 0.1008 2.015 0.5038 1.108 1.209-0.1008 0.3023 0.9571-0.5038 1.36-1.209 0.3022-2.015 1.411-0.2519 1.562-0.2015 1.713-2.317 0.3023-0.7053 0.6045-0.3526 1.662-0.2519 1.36-0.1008 1.058-1.058 0.806 0.403 1.864-1.008-0.3526-0.2519-0.9571-0.806 0.4534-0.3526 0.9571-1.36 1.511-0.3526-1.461 0.2015-1.209-1.31-0.8564-0.5038-1.008-1.36-0.2519-1.259-0.3022-0.2015-0.5541-0.7053-1.36-0.806-1.713-1.108-0.9571-1.209-0.4534 0.1511 1.914 0.806 0.7556 0.806 1.31 0.4534 1.259 0.1008 2.368 0.6045 1.814 1.159 2.267 2.166 1.965-1.159 0.403-1.662-1.108-2.972-0.0504-0.4534 0.806-0.7556 1.209-0.2015 0.6045-1.713 0.1511-0.4534 0.9571-1.461 1.763-1.058 1.209-0.6549-1.008 0.2015-1.108 0.6549-0.3526 0.2519-3.073 1.612-2.267 0.0504-1.058-1.058-1.411-1.461 0.403-0.7052 0.9571-0.1008 1.814-1.008-1.411-0.1511-0.9571h-1.108l-0.7053 1.36-0.4534 0.2015-0.9571-0.7556-0.806-1.763-0.7053-1.814-1.259-0.1511-1.259 1.763-0.6045 1.461-0.9571 1.259-1.411 0.8564-1.763 0.1008-1.511 0.2519 0.403 2.065 1.058 0.7053 0.9068 0.7556 0.403 0.8564-0.3023 1.159-0.4534 1.259-0.1008 1.411 1.108 0.2519 1.209 0.3022 0.7556 0.6549 0.5541 1.008 0.5541 0.9571 0.5541 0.3526-1.108 0.9571-0.9571 0.7053-2.72 1.31-1.209 0.8564h-2.771l-2.821-0.7053z"/>
		<path onclick="click(evt)" onmouseout="clearText(evt)" onmouseover="hover(evt)" fill="#ddd" stroke="#fff" stroke-width="0.2" id="63" d="m243.1 584.8-1.108-1.36v-2.015l-1.763-1.612-0.2015-3.577-1.662-1.259-1.965 0.2015-2.065-1.914-0.0504-2.771-1.562-1.914v-8.262l1.612-1.763 1.209-4.635 4.937-2.468-0.0504-2.317 3.123-0.0504 2.72 0.8564 4.03 0.0504 5.441-3.677 7.909 2.166 2.72 3.023 0.6045 1.814 1.511-0.1008 2.62-1.31 3.829 0.2519-1.612-1.511-2.065-1.209-1.31-0.6045 0.2015-2.368 0.9571-0.0504 1.411 1.259 1.461-0.4534 0.2519-1.411-0.3023-1.058-1.259-0.3022-1.108-1.108 0.5038-0.7053 0.8564 0.1008 1.209 0.0504 0.5541-1.864-1.713-0.6549 1.209-0.5541 0.6045 0.0504 0.5541-1.461 1.612-0.1511 2.569-0.7556 1.008 0.2519 1.058 0.8564 0.4534 1.058 1.159-0.3023 1.008-1.159-0.5541-1.108 0.5038-1.159 1.209-0.806 0.9571-0.806 0.403 2.015 1.159-0.3022 0.4534-0.6549 1.511 0.2015 1.411-0.0504 1.259 1.108 0.806 0.806 1.209-0.1008 0.0504-2.015 1.159-0.9571-0.7052-1.108-0.9068-0.7556-2.065-0.3023-0.7052-0.8564 0.4534-0.8564 1.259-0.3023 2.015-0.5541-0.1511-1.411-0.6045-0.4534-1.058 0.1511-0.9068-0.3526-0.8564-1.259-0.1511-1.209 1.411-0.9571 0.3526-1.159-1.763-0.2015-1.31-0.1511-0.403-0.9571 0.4534-1.461 0.6045-1.36 1.612-0.4534 0.806-0.7556 1.159-0.1008-1.008-1.159-0.1008-1.713v-1.259l0.9571-0.4534 1.259-1.31 4.282 0.3022 1.36-0.2015 1.209 1.008 2.67 1.31 3.879 0.9571 4.332 2.317 7.959 6.75 1.965 0.4534 5.491-3.98 1.159-0.1511 1.562 0.7556v4.232l0.8564 1.008-0.0504 1.965-1.259 1.36 0.5541 8.665 2.166 2.217 0.1511 1.108 4.232 6.095 2.065 8.06 8.362 12.49-1.36 1.612 0.6045 3.426 5.441 5.592-3.526 2.368-3.929-0.1008-1.008 0.9571-0.4534 1.411-0.3526 0.6549-1.562 0.1008-6.045 2.569-2.065 1.612-4.685 0.3022-6.297 3.023-3.677-0.4534-2.72 1.259-2.217 1.058-5.995-0.403-4.181 1.965h-2.821l-4.937-1.965-10.33 0.0504-1.411 0.9571-1.662 0.1511-2.67-1.159-3.123-0.4534-2.519-2.267-5.441-5.692-6.952-2.62-5.844-1.108-4.685-0.2015-4.08 1.36z"/>
	</g>
	<text style="fill: white; font-family: Ubuntu; font-size: 56px; stroke: #555; stroke-width: 1px;" text-anchor="middle" id="province-name" x="470" y="208"></text>
</svg>
